<?xml version="1.0" standalone="no"?>
<!DOCTYPE svg PUBLIC "-//W3C//DTD SVG 20010904//EN"
 "http://www.w3.org/TR/2001/REC-SVG-20010904/DTD/svg10.dtd">
<svg version="1.0"
  xmlns="http://www.w3.org/2000/svg" width="1200.000000pt" height="1200.000000pt" viewBox="0 0 1200.000000 1200.000000" preserveAspectRatio="xMidYMid meet">
  <metadata>
Created by potrace 1.11, written by Peter Selinger 2001-2013
  </metadata>
  <g transform="translate(0.000000,1200.000000) scale(0.100000,-0.100000)" fill="#000000" stroke="none">
    <path d="M6317 11870 c-115 -29 -212 -124 -249 -245 -17 -55 -21 -162 -8 -217
28 -116 93 -202 189 -247 48 -22 69 -26 146 -26 105 1 153 18 225 83 163 144
157 461 -12 589 -78 59 -199 86 -291 63z m172 -55 c46 -24 70 -51 98 -111 24
-53 27 -71 27 -169 0 -128 -17 -198 -66 -271 -41 -60 -93 -88 -163 -87 -136 1
-210 106 -210 298 0 193 67 323 181 354 37 10 101 3 133 -14z"/>
    <path d="M5438 11845 c-2 -2 -44 -7 -93 -10 -96 -7 -135 -12 -141 -18 -13 -12
11 -34 37 -35 63 -2 63 -3 84 -292 4 -47 8 -95 10 -108 2 -12 7 -62 10 -110 8
-96 -1 -116 -55 -124 -14 -2 -26 -11 -28 -22 -4 -17 2 -18 75 -12 168 14 199
17 231 22 228 31 358 171 347 372 -8 142 -74 245 -193 304 -62 31 -75 33 -173
35 -59 1 -109 0 -111 -2z m176 -55 c131 -50 203 -224 172 -421 -17 -110 -116
-191 -232 -191 -96 0 -93 -7 -119 309 -3 37 -7 86 -10 108 -3 22 -7 77 -10
122 l-6 82 33 4 c48 7 139 0 172 -13z"/>
    <path d="M4990 11779 c-19 -5 -48 -10 -65 -13 -16 -3 -61 -12 -100 -21 -38 -8
-80 -18 -92 -20 -14 -3 -20 -11 -17 -22 4 -14 16 -18 51 -19 56 -1 66 -13 83
-97 7 -34 14 -71 16 -82 2 -11 21 -103 43 -205 24 -118 36 -191 30 -201 -5 -9
-27 -24 -49 -33 -24 -9 -40 -22 -37 -29 6 -18 22 -16 210 24 85 18 107 26 107
40 0 13 -9 17 -39 17 -53 1 -77 15 -84 49 -77 365 -106 520 -102 534 3 9 25
25 49 35 31 14 41 23 37 35 -5 12 -14 13 -41 8z"/>
    <path d="M7095 11780 c-107 -16 -180 -107 -170 -213 8 -74 44 -116 175 -200
88 -57 111 -84 117 -141 11 -92 -50 -154 -138 -142 -104 15 -173 100 -184 230
-2 22 -45 43 -46 23 0 -7 -2 -21 -4 -32 -2 -11 -9 -49 -15 -85 -6 -36 -13 -77
-16 -92 -5 -24 -2 -28 15 -28 12 0 30 5 41 12 15 10 22 9 37 -4 25 -22 92 -54
131 -63 166 -36 307 77 289 233 -7 61 -45 105 -159 182 -107 73 -138 109 -138
163 0 51 18 84 55 102 45 21 73 19 125 -7 53 -27 77 -70 93 -163 9 -51 15 -65
28 -65 23 0 26 5 34 65 3 27 11 71 16 98 16 71 -2 94 -44 59 -10 -9 -17 -10
-22 -3 -12 21 -93 61 -136 69 -24 4 -62 5 -84 2z"/>
    <path d="M4439 11652 c-115 -38 -136 -48 -132 -63 4 -15 12 -17 48 -12 51 6
79 -7 100 -47 20 -39 136 -382 131 -388 -3 -2 -127 82 -275 186 l-271 190 -95
-31 c-69 -23 -95 -36 -93 -47 2 -9 17 -16 43 -17 57 -4 89 -20 108 -52 22 -37
144 -406 150 -455 5 -40 -7 -60 -60 -96 -16 -10 -20 -19 -14 -29 7 -11 34 -5
142 31 142 47 171 71 94 76 -68 4 -80 10 -103 50 -23 42 -155 422 -146 422 3
0 138 -92 300 -205 247 -173 297 -204 313 -196 18 10 14 26 -75 288 -51 153
-94 294 -94 315 0 28 7 42 30 61 16 14 35 27 41 29 8 3 9 9 3 20 -8 13 -27 9
-145 -30z"/>
    <path d="M7870 11575 c0 -8 9 -19 20 -25 29 -16 53 -67 45 -99 -14 -55 -186
-449 -206 -470 -18 -19 -30 -22 -72 -19 -68 4 -76 -19 -15 -45 188 -80 220
-91 227 -78 6 9 -4 25 -30 48 -61 55 -61 55 90 412 34 80 64 147 67 150 3 3 3
-55 0 -129 -3 -74 -8 -205 -11 -290 -4 -85 -8 -174 -10 -197 -2 -27 1 -43 9
-46 8 -3 113 95 247 229 128 129 234 234 236 234 1 0 -4 -15 -12 -32 -134
-319 -189 -447 -201 -465 -16 -25 -61 -31 -94 -13 -13 7 -21 6 -30 -5 -15 -18
-18 -15 45 -43 211 -92 240 -102 246 -84 4 11 -4 23 -25 37 -18 12 -32 31 -34
46 -3 29 201 518 224 536 11 8 26 8 51 1 27 -7 38 -7 44 4 5 7 9 15 9 18 0 3
-48 25 -105 49 l-106 44 -37 -44 c-55 -65 -344 -359 -353 -359 -4 0 -6 19 -4
43 2 23 6 137 10 252 4 116 8 223 8 238 1 26 -5 31 -103 73 -114 48 -130 52
-130 29z"/>
    <path d="M3589 11333 c-143 -76 -156 -96 -55 -86 62 5 62 5 89 -30 42 -55 197
-362 202 -399 10 -78 -35 -149 -119 -188 -81 -36 -151 -22 -199 42 -22 29
-200 363 -220 411 -5 14 2 28 28 54 26 26 33 39 25 48 -8 10 -35 0 -121 -46
-61 -33 -115 -59 -119 -59 -15 0 -29 -26 -21 -39 6 -10 17 -10 45 -3 58 16 50
27 220 -305 83 -161 125 -197 229 -196 116 1 235 72 282 168 24 48 27 63 21
111 -3 31 -17 75 -30 98 -69 120 -176 343 -176 367 0 18 11 38 34 60 29 27 39
60 17 59 -3 -1 -63 -31 -132 -67z"/>
    <path d="M8866 11131 c-8 -12 3 -41 15 -41 5 0 15 -13 23 -29 17 -33 17 -34
-182 -346 -115 -182 -124 -190 -180 -161 -26 13 -32 14 -42 1 -12 -15 -12 -15
225 -164 55 -34 109 -68 119 -74 10 -7 48 -31 84 -54 l66 -42 58 79 c32 44 58
84 58 89 0 24 -25 19 -81 -16 -84 -51 -116 -50 -213 11 -91 57 -109 78 -95
115 14 35 129 221 138 221 3 0 30 -16 58 -35 60 -40 72 -68 55 -129 -10 -38
-4 -56 18 -56 3 0 37 52 77 115 61 97 69 116 57 126 -12 10 -19 8 -37 -8 -27
-25 -61 -43 -81 -43 -12 0 -97 45 -125 66 -4 4 138 232 148 238 11 7 169 -102
181 -125 7 -12 13 -51 14 -88 2 -91 19 -91 75 -1 24 39 42 72 40 74 -23 16
-458 286 -462 286 -3 0 -8 -4 -11 -9z"/>
    <path d="M2642 10768 c-7 -7 -12 -20 -12 -29 0 -13 -15 -22 -53 -33 -68 -20
-114 -51 -149 -101 -60 -86 -51 -193 21 -258 69 -62 121 -66 270 -22 51 15
108 27 127 27 51 0 96 -31 122 -84 l24 -48 -21 -42 c-22 -45 -69 -84 -117 -97
-43 -11 -122 6 -183 41 -45 25 -56 27 -67 16 -11 -11 0 -29 63 -105 65 -78 79
-90 94 -82 11 5 18 19 16 30 -2 17 8 24 53 38 136 43 223 148 215 262 -4 60
-18 91 -59 133 -64 67 -123 72 -293 24 -108 -30 -117 -31 -156 -17 -46 15 -87
66 -87 106 0 37 26 79 63 102 64 39 136 30 220 -28 35 -24 46 -27 59 -17 15
11 9 22 -55 104 -40 50 -74 91 -77 92 -4 0 -11 -5 -18 -12z"/>
    <path d="M9491 10727 c-8 -11 -6 -19 9 -37 11 -13 23 -35 27 -48 5 -21 -1
-127 -12 -232 -2 -19 -7 -60 -10 -89 -3 -30 -7 -56 -8 -58 -8 -7 -316 -73
-344 -73 -19 0 -47 7 -64 15 -29 15 -49 13 -49 -5 0 -4 37 -39 83 -77 45 -37
88 -73 95 -80 35 -34 51 -1 18 37 -42 50 -32 58 144 105 52 14 99 25 104 25
12 0 -6 -167 -25 -242 -11 -44 -27 -48 -71 -17 -22 16 -32 19 -41 10 -13 -13
10 -38 156 -160 62 -52 91 -71 99 -63 7 7 3 19 -13 41 -24 33 -29 92 -16 211
8 77 17 164 21 203 3 34 13 44 46 50 14 3 76 17 139 31 130 30 169 32 197 11
24 -18 54 -19 54 -1 0 8 -37 45 -82 82 -46 38 -89 74 -97 81 -10 11 -16 11
-27 2 -13 -10 -12 -15 4 -33 48 -53 34 -69 -98 -104 -142 -37 -131 -38 -125 5
3 21 8 56 11 78 3 22 10 64 15 93 12 59 23 64 75 31 30 -18 35 -19 40 -4 4 9
5 17 3 19 -2 2 -51 43 -109 91 -58 48 -112 94 -121 102 -14 11 -18 11 -28 0z"/>
    <path d="M5937 10513 c-51 -7 -95 -12 -99 -12 -12 -1 -88 -139 -107 -194 -21
-61 -20 -156 2 -209 21 -50 63 -77 212 -138 258 -105 371 -173 491 -296 108
-109 167 -212 245 -421 108 -289 103 -266 104 -483 l0 -195 -47 -95 c-56 -112
-130 -200 -203 -241 -51 -29 -52 -29 -54 -81 -1 -29 -4 -72 -6 -95 -2 -24 1
-43 7 -43 20 0 96 60 151 120 64 69 146 175 231 300 32 47 65 93 74 102 12 14
14 40 9 151 -3 73 -8 139 -11 147 -3 8 -7 38 -10 65 -15 139 -50 279 -81 325
-12 19 -31 69 -40 110 -72 302 -254 531 -534 670 -42 21 -135 59 -207 83 -73
25 -141 51 -153 58 -47 30 -50 88 -9 195 16 42 27 56 47 61 51 13 415 5 511
-12 14 -2 45 -6 70 -9 103 -12 131 -16 270 -41 567 -99 1108 -314 1441 -572
80 -62 103 -82 98 -87 -8 -7 -193 -37 -262 -43 -58 -4 -75 -2 -85 10 -20 23
-31 74 -20 85 6 6 6 12 -1 16 -17 11 -110 11 -119 1 -5 -6 -4 -44 3 -88 13
-91 25 -105 115 -133 53 -17 175 -23 230 -11 174 37 333 107 454 200 38 29 71
57 73 62 1 6 -30 11 -76 11 -130 3 -252 47 -396 144 -222 150 -515 290 -818
391 -112 37 -345 101 -415 114 -16 2 -64 12 -108 20 -43 8 -97 18 -119 20 -22
3 -47 7 -55 10 -8 2 -46 7 -85 11 -38 3 -72 8 -75 9 -10 6 -266 18 -408 19
-79 1 -184 -4 -235 -11z"/>
    <path d="M5589 10336 c-2 -3 -36 -7 -74 -11 -166 -14 -168 -15 -198 -78 -49
-104 -68 -204 -71 -366 -1 -51 1 -57 31 -76 17 -12 87 -36 155 -54 237 -62
350 -105 463 -179 180 -116 308 -316 342 -537 6 -40 24 -76 45 -89 22 -13 28
-7 35 40 3 22 10 42 15 45 11 7 -42 187 -81 272 -65 143 -168 275 -286 366
-62 47 -234 141 -260 141 -19 0 -19 19 -1 26 24 9 178 11 215 3 34 -8 131 -68
131 -82 0 -4 -29 -7 -64 -5 -72 3 -88 -4 -63 -29 24 -25 168 -31 202 -9 51 33
33 59 -106 149 -123 81 -173 97 -167 55 5 -37 -20 -38 -209 -14 -29 4 -53 4
-53 -1 0 -4 23 -21 51 -36 74 -41 50 -50 -51 -22 -47 14 -111 32 -143 40 -46
13 -62 23 -78 48 -42 67 -5 229 65 281 22 17 43 21 101 22 50 0 80 5 98 17 28
18 44 54 30 67 -9 10 -68 22 -74 16z"/>
    <path d="M6061 10280 l-44 -5 43 -50 43 -50 76 -1 c82 -1 156 -7 351 -29 112
-13 114 -14 134 -56 19 -38 79 -103 139 -150 15 -12 25 -24 22 -28 -4 -3 -44
-6 -91 -7 -46 0 -87 -3 -90 -7 -4 -3 6 -21 22 -40 24 -28 35 -34 63 -32 19 1
65 -6 101 -15 37 -9 80 -16 96 -14 37 4 74 24 74 40 0 28 -178 242 -308 370
-56 55 -67 62 -87 54 -13 -5 -34 -7 -46 -5 -12 3 -28 0 -34 -5 -6 -5 -20 -8
-31 -6 -10 2 -48 7 -84 11 -36 3 -78 8 -95 11 -16 2 -66 7 -110 10 -44 3 -84
6 -90 8 -5 1 -30 -1 -54 -4z"/>
    <path d="M2075 10244 c-92 -22 -188 -96 -230 -180 -27 -53 -30 -68 -30 -154 1
-85 4 -101 30 -154 39 -77 122 -158 202 -198 83 -40 190 -47 269 -17 174 66
262 262 198 440 -37 102 -157 216 -264 251 -45 14 -136 21 -175 12z m89 -88
c99 -41 219 -155 267 -252 52 -104 35 -209 -43 -267 -104 -78 -227 -47 -369
93 -82 80 -126 153 -135 223 -21 154 131 265 280 203z"/>
    <path d="M6859 10163 c6 -10 49 -58 96 -108 47 -49 88 -100 91 -112 7 -25 41
-43 139 -71 81 -24 142 -36 169 -34 44 3 48 64 10 160 -32 81 -41 91 -88 102
-47 10 -53 -2 -27 -60 12 -28 16 -50 11 -64 -7 -19 -14 -21 -76 -18 -38 2 -71
8 -73 14 -1 5 -18 28 -37 51 -19 23 -47 61 -62 84 -22 34 -37 46 -76 58 -68
21 -90 20 -77 -2z"/>
    <path d="M10115 10170 c-4 -6 3 -27 14 -46 12 -19 21 -43 21 -53 0 -16 -130
-146 -355 -355 -65 -60 -78 -64 -121 -31 -31 23 -54 26 -54 6 0 -4 48 -58 108
-119 77 -81 111 -110 120 -104 11 7 9 16 -7 43 -12 19 -21 43 -21 55 0 19 58
82 185 200 22 20 82 77 133 125 51 49 98 89 105 89 7 0 30 -12 51 -26 50 -34
70 -19 33 25 -45 54 -190 201 -198 201 -4 0 -11 -5 -14 -10z"/>
    <path d="M5472 10130 c-18 -4 -35 -10 -38 -12 -7 -8 7 -39 15 -33 37 22 104 5
128 -34 9 -14 3 -17 -49 -19 -36 -2 -66 2 -74 9 -22 18 -24 8 -5 -31 14 -31
23 -36 71 -47 78 -16 125 -15 140 2 13 15 16 101 5 136 -4 11 -18 24 -32 30
-28 11 -114 10 -161 -1z"/>
    <path d="M6441 10044 c31 -31 44 -36 95 -40 32 -3 67 -7 77 -9 29 -6 19 10
-27 43 -36 26 -56 33 -112 37 l-68 5 35 -36z"/>
    <path d="M7437 10028 c-16 -43 36 -203 76 -238 28 -23 180 -90 238 -104 33 -7
38 2 49 109 5 44 12 88 15 98 5 12 2 17 -12 17 -10 0 -36 9 -58 20 -22 11 -42
20 -46 20 -4 0 -2 -21 3 -46 6 -25 7 -61 3 -81 l-6 -35 -47 7 c-26 4 -51 9
-55 12 -18 11 -69 139 -70 175 -1 28 -6 39 -24 47 -32 15 -60 14 -66 -1z"/>
    <path d="M4802 9968 c-5 -7 -15 -44 -21 -83 -14 -79 -38 -138 -73 -177 -18
-20 -23 -35 -20 -58 2 -17 8 -33 12 -35 12 -7 115 90 141 132 19 31 23 33 32
18 15 -28 0 -112 -30 -168 -28 -52 -28 -52 -11 -89 21 -44 36 -47 63 -15 29
34 90 138 103 176 16 46 15 134 -1 174 -38 90 -160 168 -195 125z"/>
    <path d="M4503 9837 c-1 -132 -19 -231 -54 -300 -32 -61 -133 -157 -219 -207
-41 -24 -76 -45 -78 -46 -7 -4 31 -55 48 -64 37 -20 265 159 330 260 81 126
83 276 6 428 -15 29 -27 52 -29 52 -1 0 -3 -55 -4 -123z"/>
    <path d="M4256 9818 c-3 -24 -8 -72 -11 -108 -10 -102 -38 -260 -50 -280 -3
-4 1 -10 8 -13 25 -9 53 12 81 64 24 44 29 64 29 121 0 37 3 68 8 68 13 0 38
-43 45 -78 6 -31 7 -32 25 -16 23 21 24 57 4 115 -17 49 -85 143 -114 159 -18
9 -20 6 -25 -32z"/>
    <path d="M7030 9776 c0 -21 -38 -45 -64 -41 -44 7 -206 14 -206 9 0 -3 14 -26
32 -51 31 -42 34 -44 68 -37 19 4 64 8 99 8 l64 1 13 -55 c19 -82 18 -88 -18
-98 -31 -8 -54 -5 -117 14 -18 5 -22 4 -18 -7 3 -8 11 -31 18 -51 11 -34 19
-40 78 -62 73 -27 132 -37 173 -29 25 5 26 7 22 57 -6 72 -39 177 -85 267 -38
78 -59 103 -59 75z"/>
    <path d="M7160 9777 c0 -7 19 -31 43 -54 34 -33 63 -48 152 -78 250 -85 470
-187 539 -251 l39 -35 -5 -70 c-3 -39 -10 -75 -16 -81 -7 -7 -27 0 -63 20 -30
16 -81 44 -114 62 -33 18 -76 43 -95 55 -65 40 -277 155 -334 180 l-57 25 7
-37 c9 -52 21 -63 164 -158 210 -139 482 -286 555 -301 40 -8 79 23 92 73 13
51 7 186 -9 220 -7 15 -35 44 -62 64 -89 67 -480 250 -749 350 -91 34 -87 33
-87 16z"/>
    <path d="M10373 9699 c-128 -16 -268 -119 -325 -238 -26 -55 -31 -77 -31 -141
0 -63 4 -85 27 -130 67 -135 180 -197 320 -176 34 5 44 11 42 24 -2 14 -15 17
-78 18 -95 0 -154 31 -195 101 -79 136 15 323 212 421 110 55 206 54 276 -5
81 -69 81 -162 0 -283 -26 -39 -29 -47 -16 -59 12 -12 27 -4 109 63 53 42 96
80 96 85 0 16 -27 31 -44 25 -9 -3 -16 -2 -17 2 -9 102 -90 219 -183 263 -55
27 -130 38 -193 30z"/>
    <path d="M5053 9684 c-9 -24 23 -61 54 -62 98 -3 521 -209 506 -247 -2 -7 -18
-16 -35 -19 -34 -7 -120 26 -368 138 -80 37 -154 65 -165 64 -14 -2 -21 -12
-23 -34 -3 -29 0 -31 55 -48 32 -10 144 -58 249 -106 165 -77 276 -120 306
-120 11 0 114 159 121 187 4 17 -2 28 -21 41 -43 29 -80 42 -120 42 -59 0
-140 25 -311 95 -184 75 -240 90 -248 69z"/>
    <path d="M6170 9683 c-29 -6 -43 -42 -29 -75 10 -24 16 -28 38 -23 52 11 128
7 158 -8 20 -11 41 -38 64 -82 41 -80 37 -85 -74 -85 l-79 0 19 -32 c16 -28
24 -32 68 -34 28 -1 66 -5 86 -8 27 -5 41 -2 61 14 25 19 26 21 13 68 -7 26
-28 85 -48 131 l-35 85 -61 12 c-33 7 -65 15 -70 19 -15 8 -94 21 -111 18z"/>
    <path d="M4062 9587 c-7 -34 -15 -73 -18 -87 -13 -68 -52 -157 -81 -186 -18
-18 -64 -51 -102 -74 -89 -53 -136 -104 -155 -171 -25 -83 -22 -95 29 -125 51
-30 152 -43 196 -26 22 9 27 19 32 59 3 26 22 99 42 161 35 110 37 113 74 128
32 13 41 22 48 53 17 64 -7 241 -41 308 -10 21 -13 17 -24 -40z m-61 -334
c-10 -32 -37 -102 -61 -157 l-43 -98 -55 5 c-30 3 -62 12 -70 20 -23 24 20 84
100 140 38 26 85 70 104 97 20 28 37 50 39 50 2 0 -5 -26 -14 -57z"/>
    <path d="M8631 9571 l-41 -48 73 -37 c272 -137 712 -655 1104 -1296 139 -228
293 -533 308 -610 4 -21 -18 -50 -38 -50 -53 0 -197 67 -237 109 -51 53 -127
156 -250 341 -417 623 -679 940 -980 1183 -120 96 -382 258 -397 244 -2 -3 7
-36 23 -74 15 -37 27 -74 27 -80 0 -7 30 -30 66 -52 170 -102 373 -298 612
-591 116 -143 107 -131 340 -440 170 -226 253 -332 339 -435 96 -115 197 -207
269 -244 131 -68 349 -126 512 -138 98 -6 116 3 72 39 -47 38 -147 141 -174
178 -26 35 -129 199 -129 205 0 1 -19 38 -43 81 -24 44 -72 133 -107 199 -323
616 -585 970 -965 1305 -103 91 -322 260 -337 260 -3 0 -24 -22 -47 -49z"/>
    <path d="M1530 9588 c-105 -36 -158 -89 -330 -336 -53 -74 -46 -99 15 -58 21
14 41 26 45 26 7 0 114 -76 418 -294 28 -21 53 -42 53 -47 1 -5 2 -15 3 -21 1
-7 -4 -26 -12 -42 -10 -21 -11 -31 -2 -40 13 -13 15 -11 131 154 111 157 139
220 141 324 2 136 -78 252 -218 318 -81 38 -164 43 -244 16z m178 -119 c78
-38 173 -125 201 -184 40 -85 20 -192 -48 -262 -20 -22 -41 -33 -59 -33 -20 0
-92 46 -252 161 -124 88 -229 164 -234 169 -20 19 79 133 138 160 59 26 65 27
131 24 42 -3 79 -13 123 -35z"/>
    <path d="M3116 9529 c-70 -47 -91 -69 -66 -69 17 0 38 -59 34 -94 -5 -42 -21
-79 -66 -153 -68 -112 -155 -320 -160 -381 -5 -71 52 -98 162 -78 24 5 51 12
60 16 8 4 35 16 60 26 79 32 182 97 237 151 43 41 53 58 53 84 l0 33 -27 -26
c-47 -44 -144 -97 -226 -123 -79 -25 -171 -33 -182 -15 -12 19 8 62 37 80 81
49 198 270 143 270 -9 0 -18 6 -21 13 -9 25 16 69 75 131 70 73 83 124 41 166
-33 33 -71 25 -154 -31z"/>
    <path d="M6210 9539 c0 -18 29 -66 43 -72 17 -6 66 3 73 14 2 5 -2 21 -10 36
-12 24 -21 29 -60 30 -26 1 -46 -2 -46 -8z"/>
    <path d="M8371 9472 l-33 -28 40 -12 c109 -33 377 -287 677 -642 44 -52 83
-97 86 -100 15 -13 265 -331 357 -455 121 -162 278 -397 317 -472 15 -29 29
-53 32 -53 12 0 63 35 67 47 8 19 -60 143 -150 275 -69 101 -329 455 -343 468
-3 3 -33 39 -66 80 -57 73 -244 300 -255 310 -3 3 -39 43 -80 90 -117 133
-354 370 -428 426 -74 57 -142 94 -169 94 -10 0 -33 -13 -52 -28z"/>
    <path d="M4653 9451 c-28 -16 -114 -74 -190 -129 -76 -55 -154 -109 -174 -121
-31 -18 -35 -24 -31 -56 3 -22 10 -35 19 -35 20 0 98 52 246 163 121 91 162
115 174 104 16 -17 -76 -106 -217 -209 -86 -63 -195 -128 -214 -128 -7 0 -18
-11 -24 -24 -27 -59 55 -59 174 1 182 91 379 286 376 374 -1 36 -40 88 -67 88
-11 0 -43 -12 -72 -28z"/>
    <path d="M4963 9448 c-14 -19 -24 -48 -15 -49 135 -14 359 -131 452 -236 36
-42 41 -52 36 -82 -11 -67 -22 -67 -126 -5 -113 68 -256 140 -326 164 -70 24
-134 34 -134 21 0 -12 -2 -10 128 -106 107 -80 132 -104 60 -59 -23 15 -66 38
-95 50 l-53 24 -11 -21 c-15 -29 -7 -42 50 -80 60 -41 241 -189 241 -198 0
-11 -52 -62 -60 -59 -20 7 -125 116 -150 155 l-27 42 -10 -44 c-9 -38 -8 -47
8 -61 10 -9 41 -51 70 -93 65 -95 98 -131 120 -131 18 0 133 119 151 157 14
30 4 65 -31 102 -16 17 -28 31 -26 31 2 0 29 -13 60 -30 80 -42 113 -40 163
11 23 22 55 68 72 101 29 59 29 62 14 87 -38 59 -198 168 -369 252 -134 65
-176 78 -192 57z"/>
    <path d="M2912 9401 c-129 -72 -261 -186 -311 -271 -24 -41 -26 -54 -26 -155
0 -142 10 -227 40 -347 58 -228 140 -357 247 -386 47 -13 229 -8 291 8 53 14
52 9 26 113 -9 34 -12 37 -37 32 -136 -27 -168 -28 -215 -10 -109 42 -160 171
-151 380 8 150 19 185 106 333 44 75 83 142 88 147 27 37 14 40 -28 8 -26 -20
-69 -46 -97 -59 -42 -20 -51 -21 -58 -9 -10 19 17 72 52 103 57 52 143 79 154
50 3 -7 6 4 6 24 1 44 -7 68 -23 68 -6 0 -35 -13 -64 -29z"/>
    <path d="M5805 9342 c6 -65 4 -80 -9 -91 -14 -12 -13 -17 13 -46 29 -33 94
-145 187 -322 46 -89 68 -110 80 -79 3 8 -38 90 -91 182 -111 192 -169 304
-158 304 18 0 174 -172 255 -280 101 -134 124 -210 80 -270 -18 -24 -91 -84
-111 -91 -16 -6 -21 -110 -6 -115 26 -10 147 68 232 149 40 38 42 43 37 86 -6
53 -32 114 -77 186 -77 123 -386 465 -419 465 -19 0 -20 -5 -13 -78z"/>
    <path d="M3272 9374 c-31 -34 -32 -38 -21 -78 6 -22 13 -50 15 -61 7 -29 6
-112 -1 -138 -6 -22 -6 -22 10 -2 40 49 56 97 56 166 0 58 -15 149 -25 149 -1
0 -17 -16 -34 -36z"/>
    <path d="M4885 9350 c-15 -16 -11 -20 72 -55 134 -57 255 -122 300 -159 42
-37 58 -36 68 5 13 52 -87 116 -277 180 -147 50 -145 49 -163 29z"/>
    <path d="M6937 9316 c-2 -6 3 -27 11 -48 13 -34 21 -39 83 -58 38 -11 82 -23
99 -26 29 -6 30 -8 31 -63 1 -57 1 -63 14 -120 4 -17 3 -31 -2 -32 -40 -5 -77
-3 -127 8 -32 8 -60 12 -62 10 -2 -1 -5 -32 -8 -67 l-6 -65 133 -33 c133 -33
173 -38 192 -24 24 17 -2 203 -56 402 -29 109 -27 104 -44 90 -29 -24 -106
-20 -182 10 -47 18 -73 24 -76 16z"/>
    <path d="M7300 9295 c0 -28 20 -65 35 -65 23 0 347 -161 440 -219 157 -97 178
-135 131 -238 -24 -50 -25 -52 -61 -47 -46 6 -144 55 -313 157 -73 44 -135 77
-138 74 -4 -3 1 -27 10 -53 9 -26 16 -58 16 -70 0 -43 137 -119 350 -194 63
-22 119 -45 123 -49 11 -11 62 3 82 23 46 45 77 194 53 256 -39 103 -384 320
-660 416 -53 18 -68 20 -68 9z"/>
    <path d="M6346 9263 c-3 -4 -6 -19 -6 -33 0 -24 5 -28 40 -34 75 -12 106 -34
134 -95 36 -83 41 -122 19 -150 -17 -21 -28 -23 -101 -25 -61 -1 -85 -5 -92
-16 -19 -30 -6 -54 30 -55 8 0 45 -8 82 -19 177 -50 216 46 127 318 -25 77
-35 97 -53 101 -40 8 -174 14 -180 8z"/>
    <path d="M4100 9247 c0 -9 0 -18 0 -19 -1 -2 -5 -20 -10 -41 -6 -29 -5 -40 5
-43 7 -3 18 -18 25 -34 16 -40 -14 -105 -79 -170 -27 -27 -48 -50 -45 -50 9 0
89 42 117 62 35 25 74 85 80 124 7 47 -19 116 -58 154 -26 25 -35 30 -35 17z"/>
    <path d="M5715 9211 c-16 -51 -11 -69 54 -204 81 -166 103 -230 106 -305 4
-72 -8 -104 -55 -146 -35 -31 -113 -66 -124 -55 -7 6 -17 66 -31 179 -5 42
-15 116 -21 150 -2 14 -6 51 -10 82 -4 32 -12 66 -19 75 -12 16 -14 15 -22
-12 -13 -49 -8 -461 6 -538 12 -60 18 -71 44 -88 63 -38 173 -4 272 83 51 45
67 87 66 168 -1 104 -39 227 -122 392 -46 94 -128 238 -134 238 -2 0 -6 -9
-10 -19z"/>
    <path d="M7330 9128 c1 -31 6 -36 78 -72 123 -61 275 -154 342 -208 61 -50 62
-50 57 -22 -2 16 -1 38 3 49 7 18 -10 29 -149 97 -168 84 -165 82 -259 146
-35 23 -65 42 -67 42 -3 0 -5 -15 -5 -32z"/>
    <path d="M4623 9097 c-26 -17 -122 -64 -212 -104 -237 -106 -234 -105 -258
-130 -41 -42 -27 -60 42 -53 36 3 117 37 295 124 182 89 254 113 277 94 19
-15 -1 -36 -57 -60 -184 -78 -204 -95 -159 -137 26 -24 59 -20 154 24 120 54
177 119 168 190 -5 42 -33 61 -100 70 -96 13 -100 13 -150 -18z"/>
    <path d="M6350 9116 c0 -22 22 -80 37 -98 15 -17 70 -34 79 -25 3 2 -1 34 -7
71 l-12 66 -49 0 c-34 0 -48 -4 -48 -14z"/>
    <path d="M8151 9107 c-6 -6 -11 -24 -11 -40 0 -23 11 -39 48 -71 69 -60 418
-410 557 -560 204 -220 230 -248 314 -344 120 -138 229 -275 239 -303 19 -50
-31 -94 -83 -73 -12 5 -116 122 -230 259 -115 138 -211 252 -214 255 -3 3 -20
21 -36 41 -99 118 -122 144 -140 163 -11 12 -33 37 -49 56 -95 116 -316 348
-358 374 -26 17 -27 17 -44 -9 -10 -15 -18 -51 -20 -85 l-3 -59 83 -65 c165
-129 330 -304 815 -865 204 -235 232 -259 294 -245 50 11 75 32 102 88 36 74
36 139 -1 202 -31 54 -188 268 -238 325 -17 19 -49 57 -71 84 -183 227 -536
602 -685 730 -135 116 -240 171 -269 142z"/>
    <path d="M5675 9047 c-17 -26 -16 -30 8 -110 14 -45 40 -136 57 -202 18 -66
33 -121 34 -122 1 -1 7 2 14 6 11 6 9 25 -7 92 -45 190 -57 243 -67 299 -11
59 -19 67 -39 37z"/>
    <path d="M10975 8960 c-27 -4 -66 -10 -85 -13 -19 -3 -57 -9 -85 -13 -27 -3
-57 -7 -65 -9 -8 -2 -51 -8 -95 -15 -44 -6 -91 -13 -105 -16 -129 -22 -209
-13 -231 27 -9 18 -39 16 -39 -3 0 -7 112 -210 125 -226 1 -1 9 0 18 4 12 4
14 11 7 30 -20 52 -19 74 3 89 30 19 155 41 166 29 5 -5 35 -53 66 -107 l57
-99 -59 -71 c-33 -39 -64 -72 -70 -74 -6 -2 -24 10 -40 27 -19 20 -35 29 -45
25 -13 -5 -3 -29 59 -137 41 -71 95 -182 120 -246 25 -64 49 -127 54 -139 5
-15 14 -21 24 -16 13 4 15 15 10 50 -10 79 11 97 222 179 252 98 245 96 234
77 -6 -10 -93 -148 -194 -308 -154 -243 -182 -293 -174 -311 9 -20 17 -18 275
83 147 58 288 107 313 110 44 5 47 4 74 -31 27 -35 55 -48 55 -24 0 7 -18 57
-39 112 -22 56 -44 113 -50 128 -7 19 -15 26 -26 22 -11 -5 -14 -18 -11 -55 6
-74 -9 -87 -191 -159 -87 -34 -172 -68 -190 -76 -17 -8 -36 -14 -41 -14 -6 0
70 128 169 284 l180 284 -31 78 c-44 111 -49 118 -65 104 -9 -8 -12 -22 -9
-40 8 -38 -12 -95 -39 -113 -36 -23 -413 -166 -456 -173 -35 -6 -43 -3 -66 22
-64 69 -74 132 -29 192 15 20 30 39 33 42 4 3 44 52 91 110 46 58 87 107 90
110 3 3 49 60 103 126 124 154 122 165 -18 144z m-67 -78 c-56 -77 -163 -200
-169 -196 -8 5 -99 168 -99 178 0 3 3 5 8 4 4 -1 27 1 52 5 25 4 65 9 90 12
25 4 61 10 80 14 43 10 54 5 38 -17z"/>
    <path d="M5471 8885 c-27 -32 -31 -43 -31 -98 -1 -98 -8 -238 -15 -282 -8 -50
-53 -142 -78 -160 -20 -14 -56 -11 -88 5 -47 26 -44 206 6 323 7 18 6 18 -31
2 -47 -20 -42 -12 -59 -76 -45 -161 -59 -279 -40 -338 16 -52 134 -70 245 -38
48 14 58 21 77 59 47 90 65 190 68 383 4 182 -1 255 -15 255 -4 0 -22 -16 -39
-35z"/>
    <path d="M3627 8836 c-24 -45 -27 -61 -12 -61 40 -2 85 -18 85 -30 0 -38 -91
-58 -165 -37 -63 19 -147 -45 -196 -150 -30 -65 -34 -82 -34 -158 0 -72 4 -92
27 -136 45 -86 133 -151 235 -175 55 -12 169 -15 202 -4 21 6 20 9 -23 55
-121 129 -132 271 -28 344 70 48 117 60 254 61 70 1 133 6 140 12 7 5 40 25
73 43 33 18 70 42 82 53 25 22 93 24 188 4 51 -10 60 -15 57 -32 -4 -29 -35
-53 -181 -140 -101 -60 -128 -81 -114 -86 10 -4 20 -5 23 -4 3 2 23 6 45 9
147 24 339 120 388 197 16 24 16 27 -6 56 -52 71 -134 118 -228 129 -30 4 -58
7 -64 6 -149 -16 -299 -2 -583 56 l-143 29 -22 -41z m355 -122 c16 -5 36 -79
24 -91 -3 -3 -41 -7 -83 -9 -200 -8 -356 -87 -393 -200 -15 -44 -8 -120 15
-164 9 -18 14 -34 11 -37 -10 -11 -84 29 -115 61 -56 59 -63 107 -30 225 25
89 44 126 74 139 13 6 63 8 119 5 l96 -6 42 47 41 48 91 -7 c50 -3 99 -8 108
-11z"/>
    <path d="M4841 8847 c-8 -11 -4 -22 19 -47 26 -29 30 -41 30 -91 0 -97 -27
-83 -71 36 -13 33 -24 62 -25 64 -2 2 -17 -10 -34 -27 -16 -17 -26 -33 -20
-37 5 -3 19 -38 30 -78 32 -109 41 -128 67 -138 32 -12 88 17 137 71 32 36 37
47 32 73 -10 47 -47 114 -85 152 -36 37 -61 44 -80 22z"/>
    <path d="M7004 8744 c4 -21 3 -41 -4 -49 -8 -10 5 -20 62 -49 40 -19 86 -38
101 -41 l28 -6 -7 -87 c-4 -48 -7 -93 -7 -100 0 -22 -50 -7 -112 33 l-55 35
-15 -30 c-9 -17 -18 -47 -21 -68 l-5 -38 88 -36 c48 -20 109 -39 135 -43 42
-6 48 -5 63 19 34 52 47 119 51 273 l5 151 -40 -10 c-55 -14 -96 -4 -185 42
-42 22 -79 40 -82 40 -4 0 -3 -16 0 -36z"/>
    <path d="M907 8764 c-16 -16 -5 -41 36 -84 108 -113 399 -454 408 -477 5 -15
9 -45 7 -67 -2 -29 1 -41 10 -41 16 0 134 223 126 236 -10 16 -24 9 -55 -26
-17 -19 -37 -35 -45 -35 -14 0 -134 112 -134 125 0 3 25 56 57 116 48 92 59
108 77 104 12 -2 48 -7 81 -10 93 -9 98 -12 92 -49 -3 -17 -8 -38 -12 -47 -4
-10 0 -19 9 -22 11 -4 27 16 59 76 82 152 92 176 79 189 -10 10 -18 6 -37 -15
-32 -34 -61 -41 -133 -32 -31 4 -73 9 -92 10 -19 1 -57 5 -85 9 -27 3 -70 9
-95 11 -25 3 -65 7 -90 10 -192 22 -255 27 -263 19z m303 -130 c36 -4 74 -8
85 -8 12 -1 19 -8 17 -16 -3 -18 -71 -151 -83 -164 -9 -10 -7 -11 -105 99 -98
111 -97 108 -33 101 30 -3 83 -9 119 -12z"/>
    <path d="M6400 8760 c-6 -4 -12 -16 -15 -28 -2 -12 -7 -27 -10 -32 -3 -6 4
-10 17 -10 49 -1 134 -13 151 -22 38 -20 2 -165 -59 -236 -29 -34 -34 -48 -34
-90 0 -28 4 -53 8 -56 15 -9 67 36 121 105 75 95 90 123 99 182 7 44 5 59 -14
98 -12 25 -28 50 -36 56 -29 24 -202 49 -228 33z"/>
    <path d="M5329 8737 c-22 -11 -24 -16 -18 -45 9 -43 4 -142 -11 -201 -6 -25
-11 -50 -11 -56 1 -11 48 -17 55 -7 2 4 7 54 10 112 4 58 9 129 12 158 5 55 3
57 -37 39z"/>
    <path d="M7425 8692 c3 -20 9 -38 14 -40 27 -9 174 -107 214 -142 60 -53 77
-86 76 -147 -3 -136 -32 -135 -223 8 -60 45 -111 78 -116 73 -7 -8 -14 -82
-11 -120 3 -31 83 -92 156 -118 28 -10 82 -35 122 -54 72 -36 72 -36 93 -17
44 40 80 142 80 229 0 132 -134 264 -348 342 l-63 23 6 -37z"/>
    <path d="M2931 8663 c6 -15 19 -36 31 -47 85 -79 317 -67 356 19 11 25 11 27
-5 20 -106 -45 -247 -39 -355 16 l-38 19 11 -27z"/>
    <path d="M6270 8610 c-7 -13 -9 -33 -4 -48 11 -40 12 -46 19 -125 3 -39 8 -94
11 -122 3 -27 5 -104 5 -170 0 -131 -13 -194 -53 -248 -13 -18 -25 -50 -27
-72 -2 -22 -7 -48 -12 -57 -12 -22 -3 -23 44 -3 144 60 167 258 81 707 -27
142 -43 177 -64 138z"/>
    <path d="M6418 8615 c-6 -7 14 -80 25 -91 11 -11 57 17 57 35 0 40 -58 79 -82
56z"/>
    <path d="M8047 8608 c-12 -6 -17 -22 -17 -52 0 -40 3 -46 58 -89 31 -25 122
-110 202 -189 332 -329 530 -555 530 -606 0 -58 -52 -92 -141 -92 -55 0 -68
10 -169 125 -170 196 -444 480 -517 537 -69 53 -83 47 -83 -34 l0 -64 73 -61
c39 -34 151 -139 248 -235 252 -247 365 -355 394 -374 99 -65 295 38 295 154
0 96 -516 737 -725 901 -86 68 -128 90 -148 79z"/>
    <path d="M5041 8580 c-17 -17 -31 -36 -31 -44 0 -50 -72 -219 -101 -240 -24
-16 -79 -22 -79 -8 0 6 63 134 104 210 10 18 16 35 13 38 -3 3 -32 -18 -66
-46 -65 -54 -137 -138 -153 -180 -35 -87 30 -154 141 -146 86 6 197 135 226
261 17 74 9 185 -14 185 -5 0 -22 -14 -40 -30z"/>
    <path d="M7426 8533 c-4 -9 -5 -17 -4 -18 2 -1 53 -43 115 -93 61 -51 114 -92
117 -92 3 0 12 13 21 30 l15 29 -72 42 c-40 23 -98 59 -130 80 -47 32 -57 36
-62 22z"/>
    <path d="M3940 8485 c0 -3 19 -14 43 -25 134 -63 223 -239 231 -455 3 -92 -10
-218 -30 -270 -13 -36 56 57 76 101 90 206 -6 540 -181 628 -46 23 -139 37
-139 21z"/>
    <path d="M6121 8478 c-23 -12 -23 -14 -16 -108 15 -198 11 -397 -10 -487 -12
-51 -126 -143 -177 -143 -23 0 -28 5 -34 36 -6 31 1 228 10 319 3 29 16 151
21 208 3 37 -9 42 -43 18 -26 -18 -30 -29 -45 -133 -27 -185 -31 -227 -31
-358 -1 -143 10 -188 53 -213 39 -23 78 -21 129 6 108 58 166 155 222 372 26
98 37 297 21 378 -20 106 -44 132 -100 105z"/>
    <path d="M3723 8413 c-5 -15 -11 -49 -12 -75 -2 -40 0 -48 15 -48 9 0 47 -9
84 -20 69 -21 74 -25 132 -121 24 -38 48 -127 48 -174 0 -94 -54 -207 -154
-325 -30 -36 -119 -126 -198 -200 -319 -302 -461 -447 -508 -517 -124 -186
-124 -372 2 -514 31 -36 110 -101 115 -96 2 3 -8 51 -23 108 -33 127 -36 238
-9 319 16 50 34 70 184 215 321 310 547 541 603 615 115 153 132 218 98 391
-46 241 -183 445 -305 455 -16 1 -37 5 -46 9 -12 4 -19 -1 -26 -22z"/>
    <path d="M6005 8406 c-9 -13 -17 -48 -20 -77 -2 -30 -6 -94 -10 -144 -9 -140
-14 -204 -20 -277 -3 -38 -2 -68 2 -69 5 0 20 -3 36 -5 24 -4 27 -1 28 23 3
56 4 573 2 573 -1 0 -10 -11 -18 -24z"/>
    <path d="M7947 8383 c-29 -57 -30 -73 -6 -73 82 0 480 -369 618 -573 29 -43
36 -48 64 -45 19 2 33 9 35 19 9 48 -280 380 -498 570 -72 63 -168 129 -187
129 -7 0 -19 -12 -26 -27z"/>
    <path d="M686 8267 c-172 -474 -184 -512 -170 -520 18 -10 154 -57 166 -57 17
0 7 40 -14 54 -29 21 -78 94 -78 117 0 16 28 109 35 117 6 7 562 -200 572
-214 11 -15 10 -56 -2 -95 -5 -14 -1 -19 13 -19 16 0 29 28 74 156 47 132 53
156 40 162 -10 3 -20 -2 -26 -13 -6 -11 -23 -32 -38 -47 l-26 -28 -154 54
c-84 30 -212 75 -285 101 l-131 47 13 38 c30 85 55 105 147 116 99 12 93 30
-21 71 l-89 32 -26 -72z"/>
    <path d="M6875 8290 c-16 -18 -17 -23 -5 -46 14 -25 68 -78 123 -121 l27 -21
-37 -61 c-31 -48 -42 -59 -58 -54 -36 10 -154 93 -160 113 -6 18 -8 18 -32
-11 l-26 -30 34 -37 c59 -63 163 -163 181 -173 14 -8 27 -1 61 33 62 62 129
144 171 210 41 64 42 68 21 68 -26 0 -179 76 -228 113 -26 21 -49 37 -51 37
-1 0 -11 -9 -21 -20z"/>
    <path d="M5678 8259 c-6 -4 -16 -5 -22 -3 -8 3 -11 -20 -11 -73 1 -106 -11
-199 -40 -321 -33 -137 -69 -211 -113 -229 -41 -17 -136 -19 -176 -4 l-29 11
6 73 c9 107 18 145 89 364 6 17 8 38 5 47 -10 25 -65 -11 -73 -49 -3 -16 -31
-108 -60 -204 -57 -183 -61 -199 -70 -272 -6 -42 -4 -47 25 -72 38 -31 96 -42
200 -34 133 9 186 43 236 152 56 123 78 245 91 495 l7 130 -27 -2 c-15 -1 -32
-6 -38 -9z"/>
    <path d="M5005 8162 c-99 -134 -210 -379 -222 -494 -6 -58 10 -88 63 -113 71
-34 207 -25 251 17 49 46 122 221 138 333 23 158 24 180 9 191 -17 14 -53 7
-55 -10 -6 -62 -13 -91 -33 -156 -30 -93 -43 -117 -103 -202 -43 -60 -66 -79
-98 -83 -16 -2 -65 24 -66 35 -5 40 -3 64 13 125 23 84 97 239 134 279 21 22
29 42 32 81 2 29 0 55 -4 58 -5 3 -32 -25 -59 -61z"/>
    <path d="M5533 8203 c-29 -26 -35 -43 -77 -218 -45 -193 -61 -275 -53 -275 8
0 67 22 67 25 0 2 7 37 15 77 9 40 18 89 21 108 3 19 11 67 19 105 7 39 17 88
21 110 9 51 11 56 19 78 10 23 5 22 -32 -10z"/>
    <path d="M7296 8172 c-3 -5 -8 -28 -12 -50 -6 -37 -4 -42 12 -42 57 0 184 -96
184 -140 0 -25 -65 -136 -91 -154 -17 -11 -28 -12 -52 -4 -36 12 -124 66 -178
109 l-36 28 -25 -30 -26 -29 71 -71 c112 -111 213 -149 280 -104 32 20 126
144 150 197 29 61 23 81 -45 150 -84 84 -216 165 -232 140z"/>
    <path d="M4694 8071 c-165 -161 -211 -251 -173 -344 24 -60 108 -114 185 -119
38 -3 39 -2 42 33 3 33 0 37 -25 44 -15 3 -51 21 -81 38 -46 28 -52 35 -47 57
17 70 141 292 186 331 18 16 16 29 -5 29 -6 0 -43 -31 -82 -69z"/>
    <path d="M4850 8111 c0 -4 -34 -61 -76 -126 -41 -65 -84 -135 -94 -156 l-19
-37 24 -4 c24 -5 65 15 65 32 0 4 25 52 55 105 30 54 55 100 55 102 0 2 12 20
26 39 15 19 24 37 21 41 -9 9 -57 12 -57 4z"/>
    <path d="M7815 8066 l-17 -45 38 -32 c57 -48 287 -280 382 -385 46 -51 82
-100 82 -111 0 -47 -65 -91 -157 -107 -30 -5 -40 2 -140 102 -146 146 -328
302 -352 302 -4 0 -8 -12 -9 -27 -2 -27 -46 -93 -63 -93 -5 0 -9 -4 -9 -10 0
-5 5 -10 11 -10 6 0 44 -16 85 -36 78 -39 199 -131 334 -254 45 -41 96 -83
113 -93 63 -34 185 -1 244 66 42 47 50 92 28 156 -34 103 -194 329 -327 463
-75 75 -187 158 -214 158 -7 0 -20 -20 -29 -44z"/>
    <path d="M5068 8051 c-9 -25 -37 -96 -63 -158 -37 -92 -44 -116 -35 -133 6
-11 14 -20 19 -20 11 0 161 325 161 349 0 4 -15 7 -33 8 -29 0 -34 -3 -49 -46z"/>
    <path d="M3875 8043 c-52 -78 -165 -164 -375 -283 -311 -176 -416 -270 -520
-462 -160 -297 -195 -590 -108 -903 40 -145 103 -225 223 -283 74 -37 220 -78
304 -87 31 -4 67 -8 81 -11 38 -6 251 -14 482 -19 206 -4 247 -10 249 -40 1
-8 2 -21 3 -27 1 -7 -6 -49 -16 -92 -10 -43 -17 -81 -15 -83 8 -8 76 71 101
117 28 52 38 120 24 162 -6 15 -26 42 -45 59 l-36 31 -141 -8 c-589 -33 -868
36 -989 244 -18 32 -49 94 -70 139 -148 328 -97 565 186 855 85 89 146 139
286 238 111 78 232 191 327 305 32 39 64 76 71 84 14 13 15 91 2 91 -4 0 -15
-12 -24 -27z"/>
    <path d="M7234 8019 l-16 -32 48 -41 c26 -22 52 -45 58 -51 7 -8 16 -6 33 9
27 23 28 34 5 61 -27 31 -92 85 -102 85 -5 0 -17 -14 -26 -31z"/>
    <path d="M6627 7995 c-10 -14 -24 -25 -32 -25 -27 0 -15 -14 60 -72 41 -32 81
-71 90 -87 15 -30 14 -31 -19 -61 l-34 -31 25 -47 c14 -26 28 -50 31 -54 4 -4
40 26 80 67 l73 73 -15 29 c-22 44 -99 126 -170 183 -35 27 -65 50 -67 50 -2
0 -12 -12 -22 -25z"/>
    <path d="M7703 7903 l-19 -47 60 -50 c33 -28 68 -57 76 -66 27 -25 202 -185
241 -218 24 -21 47 -32 67 -32 l31 0 -46 68 c-42 61 -82 112 -153 197 -80 96
-195 195 -226 195 -6 0 -20 -21 -31 -47z"/>
    <path d="M6470 7881 c-14 -27 -13 -82 4 -133 7 -24 24 -84 36 -135 20 -78 21
-95 11 -121 -26 -63 -52 -48 -115 63 -19 33 -40 86 -47 118 -7 31 -16 57 -20
57 -48 0 -18 -222 45 -335 30 -56 36 -60 72 -63 21 -2 55 1 75 7 31 9 40 19
63 71 25 54 27 68 22 147 -5 92 -36 203 -82 296 -26 50 -47 59 -64 28z"/>
    <path d="M6373 7793 c-17 -6 -16 -23 1 -23 17 0 41 -36 50 -75 3 -17 9 -41 12
-55 3 -14 6 -31 6 -37 2 -19 16 -16 28 7 8 15 6 32 -12 72 -44 105 -58 122
-85 111z"/>
    <path d="M7015 7753 c-11 -21 -21 -41 -23 -44 -1 -4 8 -6 22 -6 40 0 135 -74
162 -125 13 -26 12 -29 -23 -64 -55 -53 -103 -82 -147 -90 -38 -6 -40 -4 -110
70 -68 73 -72 75 -84 55 -12 -18 -10 -27 18 -72 79 -130 118 -171 177 -183 27
-5 37 1 94 58 85 84 137 148 150 186 13 39 -11 90 -73 150 -41 40 -125 102
-139 102 -3 0 -14 -17 -24 -37z"/>
    <path d="M6906 7637 l-18 -32 53 -53 c51 -51 53 -52 76 -37 35 23 39 44 13 63
-13 9 -42 34 -65 54 l-42 38 -17 -33z"/>
    <path d="M6193 7640 l-22 -19 29 -109 c16 -60 35 -125 44 -145 8 -20 23 -86
32 -146 15 -93 16 -118 5 -165 -11 -51 -18 -61 -65 -96 -29 -22 -59 -40 -68
-40 -15 0 -63 135 -88 246 -16 73 -20 218 -7 292 12 73 5 84 -52 80 -30 -3
-36 -8 -48 -43 -8 -22 -16 -56 -19 -75 -3 -19 -9 -53 -13 -75 -9 -48 -7 -193
3 -255 20 -122 100 -304 140 -316 60 -20 173 15 227 69 35 36 89 145 96 194 4
29 -9 99 -47 249 -29 115 -53 217 -55 226 -9 44 -41 134 -50 140 -15 11 -19
10 -42 -12z"/>
    <path d="M7510 7641 c-17 -33 -12 -45 52 -106 80 -78 176 -199 200 -253 19
-42 19 -43 -1 -71 -23 -32 -85 -61 -131 -61 -23 0 -43 13 -87 59 -84 85 -190
171 -211 171 -10 0 -24 -11 -31 -24 -7 -13 -25 -29 -39 -36 -26 -11 -26 -11
31 -44 32 -17 88 -59 125 -92 125 -112 137 -122 172 -131 47 -13 125 -8 177
12 44 17 102 74 104 103 6 72 -32 176 -102 279 -44 64 -127 146 -185 183 -56
35 -60 36 -74 11z"/>
    <path d="M1789 7620 c-36 -10 -165 -97 -188 -127 -28 -34 -20 -90 24 -168 58
-105 102 -146 134 -126 12 8 16 94 6 163 -9 60 12 104 76 162 27 24 49 48 49
53 0 9 -34 34 -60 44 -8 3 -27 3 -41 -1z"/>
    <path d="M4527 7609 c-76 -88 -119 -196 -118 -297 0 -83 10 -130 61 -292 59
-189 70 -237 76 -335 5 -64 12 -99 26 -122 38 -63 106 -91 154 -65 12 6 36 34
53 61 35 53 46 129 31 194 -4 18 -24 95 -43 172 -49 191 -53 238 -28 359 12
54 24 130 27 167 7 67 6 69 -20 78 -18 7 -33 7 -49 0 -21 -10 -27 -27 -52
-162 -42 -221 -41 -248 18 -453 24 -82 34 -207 21 -258 -5 -20 -12 -26 -28
-24 -23 3 -30 21 -44 118 -6 39 -27 101 -52 155 -83 175 -104 248 -102 353 2
91 45 205 108 288 30 38 29 78 -1 82 -11 1 -28 -7 -38 -19z"/>
    <path d="M11338 7605 c-2 -2 -21 -5 -44 -8 -195 -27 -333 -182 -322 -364 8
-131 78 -234 198 -292 49 -23 67 -26 155 -25 114 0 177 20 257 79 218 160 163
501 -95 589 -41 14 -141 28 -149 21z m220 -144 c75 -38 110 -95 111 -179 1
-56 -28 -112 -81 -154 -119 -96 -348 -131 -465 -73 -44 22 -91 78 -98 117 -3
18 -7 45 -9 60 -8 48 41 128 104 170 119 80 340 110 438 59z"/>
    <path d="M454 7567 c-3 -11 0 -25 9 -34 13 -14 13 -18 -7 -40 -49 -56 -65
-102 -63 -178 2 -64 6 -79 32 -116 70 -98 202 -113 288 -31 16 15 56 66 89
114 80 115 135 140 223 104 81 -34 85 -157 8 -238 -28 -30 -118 -68 -158 -68
-36 0 -55 -10 -55 -29 0 -14 19 -21 93 -35 50 -10 104 -20 118 -23 33 -6 47
22 23 48 -15 16 -14 20 11 53 102 133 82 323 -40 389 -77 42 -156 37 -217 -13
-20 -17 -67 -73 -103 -125 -71 -103 -101 -125 -165 -125 -32 0 -48 6 -70 29
-36 36 -45 68 -31 117 14 48 37 76 80 99 34 17 49 21 113 29 45 5 58 13 58 31
0 9 -21 18 -57 25 -32 6 -84 17 -115 24 -54 13 -58 12 -64 -7z"/>
    <path d="M6134 7580 c-12 -5 -25 -14 -29 -21 -7 -11 -8 -238 -2 -374 3 -70 8
-80 49 -101 30 -15 32 -15 45 2 7 10 13 30 13 45 0 21 -28 177 -44 244 -5 20
-16 81 -20 111 -2 17 2 47 9 67 13 39 12 41 -21 27z"/>
    <path d="M1918 7521 c-75 -78 -80 -92 -82 -208 -1 -58 1 -108 4 -112 9 -14 44
-29 87 -36 l42 -7 -18 47 c-14 37 -16 58 -9 103 11 68 31 103 98 166 l52 49
-31 13 c-87 37 -95 36 -143 -15z"/>
    <path d="M7403 7496 c-14 -30 -14 -36 -1 -49 8 -8 50 -56 93 -106 80 -92 105
-107 144 -82 30 19 -157 271 -202 271 -10 0 -24 -15 -34 -34z"/>
    <path d="M9521 7498 c-36 -37 -36 -30 -15 -166 46 -312 134 -520 290 -687 103
-111 130 -154 143 -225 7 -36 14 -126 16 -200 2 -74 6 -153 9 -175 3 -22 8
-67 11 -100 6 -62 12 -109 20 -160 3 -16 7 -48 10 -70 4 -22 12 -78 20 -125 8
-47 17 -103 20 -125 3 -23 7 -50 9 -61 2 -11 8 -47 12 -79 4 -33 8 -62 9 -65
1 -3 5 -32 9 -65 4 -33 9 -73 11 -90 18 -141 24 -413 12 -544 -6 -58 -3 -85 9
-118 13 -33 20 -41 29 -33 39 32 85 213 110 430 2 19 6 53 9 75 5 40 11 96 21
210 5 60 12 131 20 215 2 25 7 79 10 120 3 41 8 95 10 120 2 25 7 77 10 115 7
70 10 105 20 200 2 28 7 77 10 110 4 33 8 67 10 75 2 8 7 44 10 80 4 36 8 67
10 70 2 3 6 33 10 67 3 33 13 87 20 120 17 71 13 202 -9 261 -8 24 -25 82 -36
130 -11 48 -34 136 -51 197 -38 132 -37 129 -38 183 -1 40 -4 44 -38 58 -20 9
-51 18 -69 21 l-31 5 33 -158 c28 -134 68 -297 114 -454 9 -33 7 -224 -4 -300
-3 -19 -8 -69 -11 -110 -3 -41 -7 -88 -9 -105 -2 -16 -7 -64 -11 -105 -4 -41
-9 -86 -10 -100 -2 -14 -6 -68 -10 -120 -4 -52 -9 -113 -11 -135 -1 -22 -6
-130 -9 -240 -7 -234 -9 -252 -31 -234 -26 22 -38 52 -40 109 -2 63 -13 197
-19 231 -2 13 -6 58 -10 99 -3 41 -8 95 -11 120 -26 233 -33 416 -25 616 2 58
-57 211 -108 279 -22 29 -68 84 -101 122 -115 129 -183 253 -220 399 -18 73
-23 113 -34 236 -5 54 -11 68 -31 68 -8 0 -20 9 -28 20 -14 20 -15 20 -46 -12z"/>
    <path d="M6684 7486 c-7 -30 43 -139 140 -306 88 -150 146 -270 146 -302 0
-14 -8 -32 -18 -41 -16 -15 -24 -5 -125 154 -60 93 -127 207 -150 254 -23 46
-45 84 -48 84 -4 1 -14 -17 -23 -38 l-15 -40 82 -130 c45 -71 128 -206 185
-299 100 -164 164 -252 183 -252 17 0 41 71 45 132 2 31 -4 83 -12 115 -18 68
-300 623 -346 681 -17 20 -37 14 -44 -12z"/>
    <path d="M2183 7492 c-32 -5 -131 -115 -142 -160 -6 -20 -9 -77 -7 -126 2 -71
6 -91 20 -102 19 -14 94 -29 102 -21 3 3 -1 25 -9 49 -11 31 -13 57 -7 95 13
79 32 109 115 181 l38 34 -25 24 c-25 25 -48 33 -85 26z"/>
    <path d="M8970 7463 c-67 -59 -67 -60 -11 -172 59 -116 137 -251 195 -336 44
-65 50 -71 152 -190 176 -203 183 -218 183 -366 -1 -69 7 -140 21 -209 12 -58
24 -118 26 -134 6 -31 88 -324 152 -546 85 -288 115 -452 127 -670 3 -67 20
-139 29 -129 2 2 7 31 11 64 3 33 8 69 10 80 7 32 14 86 20 156 4 35 8 75 10
89 22 133 22 543 0 770 -2 19 -6 78 -10 130 -4 52 -9 111 -10 130 -2 19 -6 82
-10 140 -5 72 -12 115 -24 136 -26 44 -92 113 -124 131 -27 13 -28 13 -23 -4
3 -10 8 -43 11 -73 3 -30 10 -73 15 -95 5 -22 11 -51 13 -65 3 -14 16 -83 30
-155 35 -175 40 -226 41 -390 2 -167 -3 -209 -26 -213 -23 -4 -40 32 -44 93
-6 93 -13 138 -55 325 -79 354 -89 410 -94 507 -10 228 -5 217 -177 374 -180
165 -212 201 -290 329 -34 56 -67 177 -72 262 -5 79 -18 84 -76 31z"/>
    <path d="M5041 7446 c-1 -25 -4 -54 -6 -66 -16 -84 -22 -384 -11 -505 2 -16 4
-44 5 -62 1 -34 21 -59 88 -111 l42 -33 -10 33 c-48 168 -60 611 -19 748 5 19
10 36 10 37 0 2 -22 3 -48 3 l-48 0 -3 -44z"/>
    <path d="M5459 7474 c-23 -27 -47 -169 -48 -286 -3 -183 38 -364 117 -518 31
-60 46 -79 77 -94 77 -38 211 -13 249 47 36 56 47 169 30 332 -11 109 -11 239
0 403 l7 122 -23 1 c-31 2 -70 0 -74 -3 -1 -2 -5 -48 -9 -103 -10 -148 -13
-176 -22 -220 -10 -46 -10 -143 1 -300 12 -166 13 -162 -21 -169 -103 -23
-122 -16 -156 56 -48 102 -71 224 -71 383 0 84 12 244 19 256 3 3 7 29 11 58
l6 51 -40 0 c-24 0 -45 -6 -53 -16z"/>
    <path d="M5630 7383 c-30 -126 -31 -198 -4 -448 10 -96 18 -127 37 -139 21
-13 32 0 47 57 9 29 7 47 -5 84 -27 79 -36 220 -22 348 8 74 20 117 46 161
l20 34 -48 0 -48 0 -23 -97z"/>
    <path d="M9186 7443 c5 -97 68 -258 152 -393 50 -79 130 -176 138 -167 2 1
-17 61 -41 132 -24 72 -56 177 -70 235 -32 123 -30 115 -39 162 -9 39 -28 51
-107 63 l-35 6 2 -38z"/>
    <path d="M4886 7456 c-8 -6 -24 -40 -36 -76 -63 -191 -59 -423 9 -638 22 -68
95 -216 119 -242 46 -48 156 -87 242 -86 71 2 117 21 138 60 21 39 24 164 6
283 -7 49 -16 114 -19 146 -4 32 -8 68 -10 79 -11 57 -2 364 11 377 8 8 -29
41 -45 41 -85 -2 -141 -266 -95 -445 48 -187 53 -258 24 -356 l-10 -36 -58 9
c-31 5 -82 21 -112 36 -46 22 -59 35 -78 76 -51 106 -69 307 -49 551 4 50 10
120 13 156 5 61 4 67 -15 72 -11 3 -27 0 -35 -7z"/>
    <path d="M2338 7373 l-26 -28 60 -35 c79 -45 178 -144 209 -206 19 -40 23 -63
22 -129 -2 -110 -9 -149 -50 -277 -73 -233 -81 -327 -33 -417 52 -96 106 -144
264 -236 107 -63 178 -127 201 -181 8 -19 21 -76 30 -127 20 -113 56 -218 93
-271 45 -66 148 -118 258 -132 l35 -4 -23 31 c-13 17 -48 48 -78 69 -113 77
-153 137 -165 250 -20 188 -121 325 -332 450 -136 81 -188 129 -225 205 -39
83 -33 136 39 350 55 163 57 174 58 275 0 69 -5 117 -14 140 -23 55 -75 131
-122 179 -40 40 -153 121 -169 121 -3 0 -18 -12 -32 -27z"/>
    <path d="M9760 7389 c0 -61 73 -243 149 -372 50 -84 135 -186 146 -175 7 7 -9
79 -45 198 -18 58 -40 135 -49 172 -9 38 -27 78 -40 92 -29 31 -161 101 -161
85z"/>
    <path d="M8749 7365 c-3 -2 -21 -5 -42 -7 -20 -1 -37 -7 -37 -13 0 -14 109
-210 166 -297 52 -81 127 -164 166 -184 35 -18 40 -18 29 4 -6 9 -33 73 -61
142 -28 69 -77 178 -107 243 -51 106 -59 117 -83 117 -15 0 -29 -2 -31 -5z"/>
    <path d="M8464 7349 c-3 -6 -14 -37 -24 -70 l-18 -58 57 -98 c107 -185 180
-270 327 -382 38 -30 88 -79 110 -110 21 -31 58 -74 82 -97 37 -35 44 -48 47
-88 4 -42 8 -71 31 -191 29 -160 80 -323 194 -626 95 -254 135 -391 145 -499
14 -157 20 -181 54 -199 12 -7 18 -6 18 2 0 17 13 153 19 211 7 63 8 451 1
491 -3 17 -8 59 -12 95 -3 36 -8 72 -10 80 -2 8 -7 35 -10 60 -9 63 -50 260
-85 404 -16 67 -38 161 -49 210 -12 48 -29 101 -38 116 -18 31 -59 58 -70 46
-15 -15 34 -256 95 -466 47 -162 68 -289 74 -434 3 -71 -22 -59 -63 30 -45
101 -66 183 -104 412 -57 340 -85 410 -194 489 -24 18 -54 49 -66 70 -13 20
-77 92 -143 158 -125 126 -178 195 -258 335 -60 106 -92 138 -110 109z"/>
    <path d="M2201 7218 c-11 -29 -9 -32 42 -57 77 -38 117 -121 117 -242 0 -82
-15 -127 -86 -251 -74 -129 -96 -199 -97 -314 -1 -90 0 -92 41 -162 23 -38 66
-94 95 -124 52 -52 85 -76 292 -211 155 -101 149 -92 169 -237 23 -168 59
-310 102 -398 65 -132 180 -230 309 -261 68 -17 204 -15 297 4 82 16 83 17 23
100 l-40 55 -100 -3 c-280 -10 -414 80 -451 298 -2 17 -6 41 -9 55 -3 14 -7
48 -11 75 -8 71 -32 163 -54 205 -10 19 -49 65 -87 100 -74 70 -94 87 -249
207 -113 88 -160 137 -195 203 -20 37 -24 59 -23 130 0 87 12 125 92 300 47
101 65 187 58 271 -7 83 -13 100 -59 161 -26 35 -138 118 -158 118 -6 0 -13
-10 -18 -22z"/>
    <path d="M7147 7222 c-10 -10 -17 -23 -17 -28 0 -5 29 -35 65 -67 36 -32 77
-73 91 -92 l26 -35 -30 -25 c-38 -32 -69 -81 -75 -120 -3 -16 -8 -48 -12 -70
-3 -22 -8 -45 -10 -51 -2 -6 0 -17 5 -24 6 -9 18 -2 45 26 20 22 43 50 52 64
8 14 43 47 78 74 58 45 85 79 85 108 0 32 -167 206 -229 237 -49 26 -54 26
-74 3z"/>
    <path d="M6507 7174 c-16 -55 -18 -102 -5 -115 66 -68 215 -293 283 -429 93
-186 110 -281 64 -356 -25 -42 -43 -56 -61 -49 -18 7 -121 162 -252 380 -53
88 -107 173 -120 190 -23 28 -25 29 -51 15 -42 -22 -49 -45 -30 -93 108 -269
323 -574 441 -623 47 -20 49 -19 98 26 46 42 90 128 100 193 16 106 -155 452
-382 772 -79 112 -79 111 -85 89z"/>
    <path d="M7005 7150 c-15 -29 -14 -31 32 -102 72 -112 74 -113 117 -69 l28 29
-73 86 c-41 47 -77 86 -81 86 -4 0 -14 -13 -23 -30z"/>
    <path d="M8150 7170 c0 -4 18 -35 41 -70 47 -73 164 -194 231 -239 45 -30 98
-55 98 -46 0 2 -23 28 -52 57 -90 92 -154 192 -182 281 -3 10 -16 17 -33 18
-15 0 -45 2 -65 3 -21 2 -38 0 -38 -4z"/>
    <path d="M7971 7099 c-10 -11 -24 -40 -31 -65 l-13 -44 58 -77 c98 -132 206
-230 338 -308 64 -39 141 -82 170 -96 71 -36 109 -79 155 -174 22 -44 70 -132
107 -194 37 -62 77 -136 90 -165 28 -62 61 -199 70 -284 6 -51 13 -71 37 -98
17 -19 39 -34 50 -34 21 0 20 -22 3 280 -6 100 -16 219 -20 250 -19 121 -30
178 -64 313 -21 86 -45 162 -53 169 -27 26 -45 38 -81 53 -36 15 -36 15 -28
-7 5 -13 23 -51 40 -86 17 -34 34 -86 37 -115 3 -28 19 -106 36 -171 29 -114
29 -120 12 -133 -24 -17 -28 -10 -48 73 -34 140 -131 324 -217 412 -61 62
-139 111 -227 142 -91 31 -203 101 -251 155 -19 22 -50 73 -69 114 -36 77 -58
111 -73 111 -5 0 -17 -9 -28 -21z"/>
    <path d="M6450 6956 l-21 -65 26 -28 c24 -25 95 -123 120 -165 63 -106 158
-264 161 -267 8 -9 33 34 34 56 0 12 -11 42 -23 65 -13 24 -46 84 -72 133 -60
112 -159 279 -184 311 l-19 24 -22 -64z"/>
    <path d="M7723 6948 c-18 -6 -33 -14 -33 -18 0 -14 59 -61 144 -114 90 -57
116 -64 79 -23 -11 12 -42 55 -68 95 -51 77 -58 80 -122 60z"/>
    <path d="M319 6896 c0 -17 -2 -38 -3 -46 -4 -17 -14 -118 -22 -205 -2 -33 -7
-73 -9 -90 -3 -16 -8 -65 -11 -108 -6 -73 -5 -79 12 -75 11 2 22 17 28 36 18
65 12 65 361 28 33 -4 100 -10 149 -15 98 -10 119 -22 122 -73 2 -45 2 -45 18
-45 16 0 24 49 41 237 3 36 8 85 10 110 3 25 7 68 10 95 2 28 7 73 10 101 l5
52 -77 11 c-43 6 -90 14 -105 16 -44 8 -37 -30 10 -54 20 -11 53 -34 72 -50
34 -28 35 -32 36 -98 0 -84 -13 -163 -31 -182 -16 -16 -64 -18 -165 -6 -41 4
-79 7 -84 6 -4 -1 -17 1 -27 4 -14 5 -18 13 -15 33 3 15 7 45 10 67 7 48 34
73 87 81 32 5 58 28 46 40 -2 2 -48 8 -103 14 -54 6 -115 12 -135 15 -30 3
-38 1 -42 -15 -4 -15 3 -22 29 -30 52 -18 76 -55 73 -115 -4 -81 -7 -87 -43
-81 -17 3 -62 8 -101 12 -38 3 -81 8 -95 9 -14 2 -31 4 -39 4 -11 1 -12 15 -7
67 14 149 29 177 112 211 45 18 61 52 27 54 -10 0 -29 2 -43 4 -14 2 -44 6
-67 8 -42 4 -43 4 -44 -27z"/>
    <path d="M7526 6875 c-13 -14 -31 -40 -39 -58 -19 -37 -24 -30 98 -118 90 -65
167 -104 355 -179 85 -33 161 -67 170 -75 9 -8 31 -43 48 -78 17 -34 57 -96
89 -137 146 -191 211 -281 243 -337 24 -44 46 -67 76 -83 22 -13 45 -21 51
-19 14 5 -63 315 -102 414 -34 87 -174 323 -195 330 -8 2 -30 1 -49 -3 l-34
-7 54 -67 c71 -88 146 -235 132 -257 -22 -35 -41 -23 -84 51 -112 193 -148
247 -204 304 -68 69 -107 89 -180 93 -27 1 -54 6 -60 11 -5 4 -46 22 -91 39
-88 34 -141 74 -200 151 -21 27 -42 50 -47 50 -4 0 -18 -11 -31 -25z"/>
    <path d="M3324 6755 c-18 -69 -17 -162 2 -217 20 -62 88 -134 155 -165 50 -23
159 -48 254 -58 33 -3 71 -8 85 -10 14 -2 70 -6 125 -10 148 -9 226 -15 260
-21 17 -3 43 -7 59 -10 56 -9 126 -47 161 -85 41 -46 65 -122 70 -221 3 -92
-11 -121 -118 -233 -116 -122 -114 -119 -66 -140 22 -11 46 -27 54 -37 12 -18
16 -16 66 34 52 51 143 196 167 267 16 46 15 154 -2 217 -47 178 -208 314
-401 339 -22 2 -145 5 -273 5 -148 1 -265 6 -319 15 -78 13 -90 18 -125 52
-48 46 -103 155 -127 249 l-17 69 -10 -40z"/>
    <path d="M11288 6775 c-1 -1 -28 -6 -58 -9 -102 -12 -145 -18 -152 -22 -11 -7
-2 -34 16 -47 17 -12 17 -16 1 -72 -32 -108 -7 -222 62 -287 88 -84 236 -74
298 21 15 22 40 80 55 130 36 115 56 156 85 175 61 40 140 23 168 -37 43 -90
-5 -181 -120 -229 -43 -18 -53 -26 -53 -46 0 -17 4 -22 18 -18 9 2 56 8 104
12 48 3 95 12 104 19 16 11 15 14 -4 33 -19 19 -20 26 -10 49 62 154 -21 321
-163 329 -62 3 -105 -10 -142 -45 -38 -34 -50 -60 -88 -177 -36 -114 -51 -139
-93 -161 -36 -19 -103 -21 -134 -4 -29 15 -49 57 -56 112 -9 82 47 163 144
209 32 15 50 30 50 41 0 15 -22 33 -32 24z"/>
    <path d="M6212 6714 l-34 -46 44 -56 c163 -209 318 -505 318 -608 0 -58 -97
-109 -173 -90 -25 6 -99 114 -291 421 -145 234 -133 220 -184 200 -23 -10 -42
-21 -42 -26 0 -26 174 -314 275 -454 87 -122 200 -241 253 -269 109 -57 232
14 256 148 13 72 -66 261 -221 532 -45 77 -98 175 -119 217 -21 42 -41 77 -44
77 -3 -1 -20 -21 -38 -46z"/>
    <path d="M7263 6645 c-18 -8 -33 -17 -33 -20 0 -3 10 -25 23 -48 108 -195 193
-510 201 -744 4 -127 -27 -364 -45 -345 -5 4 -38 88 -74 187 -152 415 -179
484 -217 565 l-40 85 -13 -30 c-14 -32 -15 -28 39 -152 30 -72 129 -366 141
-419 2 -11 15 -66 28 -124 24 -100 29 -125 43 -230 7 -55 25 -100 47 -119 56
-46 130 118 154 339 20 183 6 402 -41 635 -32 158 -118 376 -165 419 -14 12
-21 12 -48 1z"/>
    <path d="M6068 6605 l-28 -24 30 -32 c16 -18 57 -83 92 -146 154 -278 195
-347 206 -351 7 -2 12 2 12 9 0 7 7 20 16 30 15 17 15 21 -9 61 -13 24 -44 79
-67 123 -108 203 -199 355 -213 355 -7 0 -24 -11 -39 -25z"/>
    <path d="M7150 6515 c0 -25 8 -58 19 -77 56 -95 156 -400 196 -592 l8 -40 18
23 c25 31 24 79 -5 192 -46 180 -187 520 -222 533 -11 4 -14 -5 -14 -39z"/>
    <path d="M5705 6464 l-15 -36 72 -95 c83 -111 224 -337 273 -438 39 -79 38
-116 -2 -142 -14 -9 -43 -17 -66 -17 -36 0 -45 5 -89 54 -64 71 -161 199 -312
414 l-123 173 -26 -14 c-47 -24 -50 -44 -15 -109 117 -221 390 -523 546 -604
56 -29 126 -33 157 -8 87 69 36 300 -118 528 -28 41 -53 77 -56 80 -3 3 -24
28 -46 55 -21 28 -67 83 -102 123 l-63 72 -15 -36z"/>
    <path d="M4780 6455 c0 -2 6 -10 13 -17 8 -7 72 -90 142 -183 289 -382 444
-536 617 -614 102 -47 144 -47 153 -3 4 24 -22 64 -136 204 -42 51 -135 175
-208 276 -128 176 -156 204 -176 172 -7 -12 122 -200 258 -373 109 -141 141
-187 127 -187 -5 0 -10 4 -10 8 0 5 -12 15 -27 23 -76 39 -233 203 -454 474
-63 77 -127 157 -144 177 -27 33 -36 37 -92 42 -35 3 -63 3 -63 1z"/>
    <path d="M5530 6404 c0 -3 13 -23 30 -44 16 -20 56 -78 87 -128 154 -242 207
-323 223 -342 16 -19 19 -19 34 -5 26 26 19 61 -26 133 -93 149 -257 364 -288
377 -24 11 -60 16 -60 9z"/>
    <path d="M4819 6243 c-4 -87 5 -148 32 -224 30 -83 56 -110 109 -116 41 -5 47
-2 68 26 l22 30 -44 48 -44 47 -21 -24 c-21 -24 -21 -25 -36 -6 -14 18 -20 72
-15 121 2 21 -50 125 -62 125 -5 0 -9 -12 -9 -27z"/>
    <path d="M1553 6158 c-56 -27 -54 -125 4 -189 20 -22 41 -39 48 -39 8 0 16 -8
20 -19 9 -28 74 -91 94 -91 24 0 61 41 61 69 0 26 -22 72 -44 90 -11 10 -14
26 -12 61 5 53 -8 72 -73 105 -44 22 -71 26 -98 13z"/>
    <path d="M6984 6103 l-31 -25 57 -112 c101 -200 134 -337 134 -556 0 -160 -8
-201 -42 -219 -29 -15 -60 6 -119 84 -71 92 -142 237 -199 410 -25 77 -48 143
-50 147 -3 4 -20 -2 -40 -14 -38 -22 -38 -30 -4 -98 10 -19 54 -116 98 -215
125 -279 189 -387 260 -442 52 -40 95 -43 116 -10 14 21 36 102 57 212 26 134
4 361 -50 518 -29 83 -143 347 -150 346 -3 0 -20 -12 -37 -26z"/>
    <path d="M11508 6113 c-48 -56 -122 -248 -143 -373 -3 -19 -8 -42 -10 -50 -2
-8 -6 -31 -9 -50 -3 -19 -8 -46 -11 -59 -26 -131 -24 -541 3 -671 10 -46 11
-44 -20 -125 -14 -38 -34 -104 -44 -145 -9 -41 -25 -97 -35 -123 -24 -60 -24
-64 0 -62 27 2 51 24 51 46 0 27 48 158 77 209 14 25 49 74 77 110 58 74 106
145 106 159 0 5 13 37 30 72 51 110 104 359 126 589 21 223 3 419 -43 465 -24
25 -28 18 -29 -48 -2 -129 -15 -247 -33 -300 -34 -99 -46 -178 -57 -391 -6
-114 -11 -207 -13 -243 -1 -14 -63 -43 -92 -43 -31 0 -31 1 -46 202 -8 116 8
208 68 393 26 83 53 173 59 200 15 63 23 255 12 255 -5 0 -16 -8 -24 -17z"/>
    <path d="M740 6104 c-19 -8 -65 -42 -103 -76 -37 -33 -70 -59 -72 -57 -1 2 -6
22 -9 43 -8 47 -17 86 -21 86 -6 0 -160 -82 -167 -88 -3 -4 -9 -54 -12 -112
-7 -124 -17 -244 -21 -248 -1 -2 -35 43 -75 98 -40 55 -75 98 -79 95 -3 -4
-22 -47 -42 -97 l-36 -92 34 -75 c19 -42 46 -101 60 -131 14 -30 38 -83 53
-116 l28 -61 -107 35 c-58 19 -118 37 -134 40 -26 4 -27 3 -28 -44 -1 -27 -2
-71 -3 -99 l-1 -49 78 -22 c43 -13 92 -35 110 -50 61 -50 127 -115 127 -125 0
-5 -8 -21 -17 -35 l-17 -26 112 -110 c84 -82 114 -106 118 -94 3 9 12 35 19
58 l14 43 -2 -66 c-1 -54 9 -93 54 -230 29 -90 54 -165 55 -167 1 -1 22 -4 48
-6 35 -2 46 0 46 11 0 8 -29 109 -65 225 l-65 211 36 61 c28 46 38 75 42 118
l4 57 -48 3 -49 3 120 74 c66 40 121 74 122 75 2 1 5 47 9 102 3 54 8 101 9
104 2 3 0 11 -4 18 -5 8 -23 6 -71 -9 -36 -11 -95 -28 -132 -38 l-67 -19 18
46 c15 39 34 59 107 115 221 169 199 146 222 233 12 43 20 79 19 81 -3 2 -210
-71 -290 -102 -17 -7 -17 -5 -1 36 11 30 40 67 91 114 l74 71 -24 98 c-14 54
-27 99 -29 101 -1 2 -19 -3 -38 -11z m-246 -189 c15 -25 31 -45 35 -45 5 0 28
9 52 19 24 11 68 29 98 41 l54 21 -44 -53 c-25 -29 -66 -78 -91 -108 -40 -48
-50 -69 -72 -155 -14 -55 -24 -100 -23 -101 2 -2 68 27 162 74 39 19 67 30 62
26 -4 -5 -66 -68 -138 -140 l-132 -131 19 -49 c10 -27 23 -59 29 -70 11 -23 9
-23 173 -10 34 3 62 3 62 1 0 -3 -52 -43 -115 -90 -63 -47 -116 -89 -119 -93
-4 -7 1 -37 19 -118 3 -16 13 -21 47 -23 23 -1 44 -4 46 -6 2 -2 -11 -24 -30
-48 l-34 -44 -81 39 -82 40 20 50 c19 48 19 51 2 63 -10 7 -65 49 -122 93 -57
45 -113 88 -125 96 -11 9 29 -2 90 -23 l112 -39 4 32 c3 17 6 56 7 87 2 58 8
43 -124 327 -24 50 -42 92 -40 92 1 0 42 -45 90 -100 48 -56 89 -99 90 -98 2
2 6 30 9 63 4 33 9 71 11 85 5 36 15 102 20 141 2 19 9 66 14 104 6 39 11 76
11 83 0 20 7 14 34 -33z"/>
    <path d="M11019 6024 c0 -16 -2 -37 -4 -47 -2 -10 -6 -55 -10 -100 -3 -45 -8
-89 -10 -97 -2 -8 -7 -44 -10 -80 -4 -36 -11 -85 -15 -110 -5 -25 -7 -92 -6
-150 2 -122 17 -165 102 -295 91 -141 145 -208 156 -197 16 16 11 91 -12 180
-18 74 -20 102 -16 255 3 95 8 186 10 202 12 67 8 173 -8 201 -8 16 -16 25
-16 19 0 -5 -2 -44 -4 -85 -2 -41 -9 -106 -16 -145 -20 -120 -22 -137 -24
-234 -2 -77 -6 -96 -21 -107 -22 -16 -45 -2 -45 27 0 11 -9 50 -19 88 -22 81
-24 189 -6 311 13 83 13 261 0 310 -3 14 -8 36 -11 50 -8 36 -14 38 -15 4z"/>
    <path d="M6776 5998 c-20 -28 -20 -44 -1 -52 19 -7 92 -119 142 -221 48 -94
113 -265 113 -295 0 -27 14 -25 33 4 15 22 13 32 -28 152 -74 222 -137 367
-178 412 -26 28 -61 28 -81 0z"/>
    <path d="M7645 5866 c0 -24 2 -46 5 -48 3 -2 39 -26 80 -53 431 -281 1567
-1085 1730 -1223 l35 -30 -40 -16 c-155 -66 -227 -71 -324 -26 -179 85 -936
646 -1413 1048 -49 40 -88 72 -89 70 -16 -66 -14 -97 7 -116 11 -9 60 -51 109
-92 50 -41 92 -77 95 -80 11 -12 285 -234 470 -382 397 -316 682 -522 799
-576 47 -21 62 -24 125 -19 181 16 388 110 392 180 2 48 -85 119 -571 463
-591 419 -1373 944 -1407 944 -2 0 -3 -20 -3 -44z"/>
    <path d="M11826 5830 c-25 -67 -55 -217 -70 -345 -5 -44 -10 -78 -30 -185 -26
-145 -58 -256 -81 -282 -92 -105 -175 -250 -175 -305 l0 -36 49 65 c69 91 96
111 218 158 59 23 114 46 121 52 16 14 55 98 80 176 19 55 28 93 51 217 6 28
10 138 10 245 -1 161 -4 205 -19 250 l-18 55 -2 -50 c-8 -262 -35 -462 -81
-600 -29 -87 -47 -117 -106 -181 -15 -16 -23 -23 -16 -15 12 17 70 205 78 256
3 16 8 41 10 55 3 14 8 41 12 60 9 51 12 442 4 464 -6 15 -14 3 -35 -54z"/>
    <path d="M4064 5862 c-68 -49 -124 -121 -124 -157 0 -39 30 -137 45 -147 33
-24 96 -1 142 51 29 32 29 45 1 84 -23 32 -31 115 -15 170 9 34 0 34 -49 -1z"/>
    <path d="M3938 5865 c-2 -3 -41 -11 -86 -19 -92 -16 -142 -41 -143 -71 0 -11
-2 -28 -4 -38 -2 -10 8 -43 22 -73 25 -55 28 -79 23 -205 -2 -45 2 -75 13 -95
8 -16 18 -37 21 -46 8 -27 50 -49 105 -55 l51 -5 -2 58 c-1 33 1 80 5 106 7
42 5 52 -16 80 -79 109 -82 236 -7 329 17 22 29 39 27 39 -2 0 -6 -2 -9 -5z"/>
    <path d="M2006 5848 c-28 -10 -28 -12 -24 -74 4 -71 33 -114 74 -114 39 0 71
71 66 146 -3 35 -69 59 -116 42z"/>
    <path d="M4844 5852 c-8 -5 -3 -24 16 -64 15 -31 26 -59 23 -61 -2 -3 11 -24
29 -48 24 -31 57 -56 113 -86 44 -23 83 -39 87 -37 5 3 8 18 8 34 0 25 -7 32
-55 54 -54 26 -98 72 -108 114 -6 25 1 25 71 -4 17 -7 32 -10 33 -6 0 4 2 15
4 24 2 12 -8 21 -33 29 -21 6 -55 22 -78 35 -40 24 -88 31 -110 16z"/>
    <path d="M5138 5845 c-9 -9 12 -136 38 -224 20 -70 44 -115 117 -219 65 -92
77 -101 145 -109 37 -4 51 -2 62 12 13 16 28 145 22 195 -3 22 -48 68 -57 58
-7 -7 -14 -59 -16 -119 -2 -56 -10 -72 -24 -49 -3 6 -15 10 -25 10 -63 0 -151
187 -164 345 -2 34 -9 44 -48 72 -25 18 -47 31 -50 28z"/>
    <path d="M1794 5769 c-12 -4 -31 -19 -42 -34 -26 -32 -17 -65 33 -120 34 -37
36 -37 67 -24 18 8 36 13 41 11 4 -1 6 12 3 30 -13 106 -20 138 -30 139 -6 1
-20 3 -31 4 -11 1 -30 -1 -41 -6z"/>
    <path d="M4706 5749 c-18 -30 -18 -31 2 -52 26 -28 40 -65 36 -97 -1 -14 -3
-28 -3 -32 -2 -20 -84 -96 -180 -168 -58 -43 -128 -97 -156 -119 -66 -52 -105
-58 -147 -23 -79 66 -105 97 -102 122 1 14 3 28 3 33 2 15 63 6 117 -18 83
-37 85 -35 67 33 -20 71 -27 81 -82 105 l-43 19 -66 -34 c-111 -56 -154 -103
-145 -162 6 -41 9 -46 82 -109 65 -56 143 -105 182 -112 114 -22 174 -11 221
41 18 20 69 61 113 92 106 74 163 129 204 196 28 47 34 68 38 134 l5 79 -52
52 c-28 28 -57 51 -64 51 -6 0 -20 -14 -30 -31z"/>
    <path d="M7611 5761 c-6 -11 -11 -24 -11 -30 0 -28 204 -217 380 -353 19 -14
58 -44 85 -66 147 -114 871 -652 1025 -761 14 -9 27 -11 47 -3 16 5 45 9 66 8
20 -1 37 2 37 5 0 3 -84 66 -187 140 -173 123 -394 282 -418 302 -5 4 -125 92
-265 195 -210 155 -460 343 -530 399 -143 114 -197 158 -207 170 -10 13 -13
12 -22 -6z"/>
    <path d="M3593 5696 c-16 -13 -37 -40 -47 -58 -19 -34 -19 -35 7 -74 25 -39
32 -61 41 -139 3 -22 8 -62 12 -88 6 -48 49 -156 62 -158 4 0 28 -3 55 -5 l47
-5 0 31 c0 22 -11 45 -34 72 -49 57 -66 143 -52 263 5 46 3 74 -11 120 -22 69
-37 77 -80 41z"/>
    <path d="M6256 5704 c-3 -9 -6 -17 -6 -19 0 -3 30 -37 66 -77 36 -40 91 -109
122 -152 59 -84 142 -236 142 -261 0 -18 -1 -18 39 -4 17 6 31 18 31 26 0 48
-188 367 -265 449 -43 46 -56 54 -87 54 -23 0 -38 -5 -42 -16z"/>
    <path d="M6511 5694 l-33 -27 30 -28 c118 -110 205 -288 252 -512 18 -84 18
-93 3 -109 -41 -46 -79 -30 -186 76 -84 84 -197 247 -282 409 -31 59 -60 107
-63 107 -4 0 -22 -9 -40 -20 -26 -16 -31 -24 -23 -38 24 -44 279 -414 327
-473 61 -77 132 -146 205 -201 56 -42 106 -50 130 -22 15 18 18 78 6 139 -4
22 -14 78 -22 125 -33 191 -66 290 -159 470 -72 142 -87 153 -145 104z"/>
    <path d="M5299 5703 c0 -5 -2 -18 -5 -31 -4 -23 37 -93 70 -122 15 -12 16 -10
6 14 -5 15 -10 47 -10 71 0 34 -5 47 -22 59 -24 17 -38 20 -39 9z"/>
    <path d="M1568 5633 c-38 -44 -32 -105 12 -128 16 -8 53 -17 84 -20 54 -6 56
-6 56 18 0 44 -84 146 -121 147 -9 0 -23 -8 -31 -17z"/>
    <path d="M5791 5605 c0 -45 49 -119 149 -226 124 -132 110 -117 186 -204 34
-38 82 -98 106 -132 31 -42 49 -59 58 -53 27 16 -192 313 -344 466 -45 45 -98
101 -118 125 -29 34 -37 40 -37 24z"/>
    <path d="M1990 5561 c-75 -24 -170 -105 -196 -166 -47 -113 35 -269 179 -339
163 -80 319 24 304 204 -10 119 -69 235 -143 280 -36 23 -107 33 -144 21z m74
-106 c48 -23 92 -74 110 -128 22 -65 20 -96 -6 -124 -70 -75 -238 51 -238 179
0 59 22 88 67 88 19 0 50 -7 67 -15z"/>
    <path d="M3457 5527 c-9 -7 -23 -29 -32 -50 l-16 -38 40 -40 c84 -84 101 -188
29 -174 -29 6 -21 -3 27 -34 25 -16 57 -41 72 -55 51 -51 54 -23 7 79 -21 47
-28 80 -32 150 -3 66 -9 99 -24 123 -25 42 -50 55 -71 39z"/>
    <path d="M6041 5506 c-9 -10 0 -25 40 -67 70 -75 220 -324 268 -446 16 -40 0
-89 -31 -99 -35 -11 -147 113 -374 412 l-145 191 -67 -2 c-37 -2 -70 -3 -74
-4 -4 -1 37 -45 91 -98 54 -54 124 -129 157 -168 32 -38 61 -72 64 -75 3 -3
76 -93 162 -201 86 -108 165 -199 174 -203 73 -28 125 -5 145 64 24 81 -62
273 -257 568 -77 117 -98 142 -118 142 -13 0 -29 -6 -35 -14z"/>
    <path d="M5020 5459 c-19 -5 -50 -11 -69 -14 -80 -12 -116 -55 -120 -144 -2
-59 5 -64 169 -101 72 -16 143 -36 159 -44 26 -14 30 -14 45 3 9 10 16 20 16
23 0 7 -59 32 -153 64 -43 15 -89 35 -102 46 -23 18 -23 19 -7 59 l17 41 98
-7 c77 -5 97 -4 98 7 0 7 2 21 4 30 3 18 -8 30 -35 36 -45 9 -89 10 -120 1z"/>
    <path d="M5611 5434 c0 -11 3 -14 6 -6 3 7 2 16 -1 19 -3 4 -6 -2 -5 -13z"/>
    <path d="M7574 5384 c-8 -31 14 -56 171 -191 151 -131 148 -128 260 -218 55
-44 102 -82 105 -85 3 -3 124 -102 270 -220 146 -118 268 -218 271 -223 4 -5
27 -10 53 -11 25 -1 43 1 39 5 -5 4 -76 61 -160 128 -84 66 -163 129 -175 140
-13 10 -122 101 -243 202 -295 244 -540 458 -558 487 -13 19 -26 14 -33 -14z"/>
    <path d="M5617 5339 c6 -100 51 -303 91 -411 42 -115 60 -133 141 -137 54 -2
65 7 75 63 4 22 9 190 7 233 -1 7 -14 19 -31 28 l-30 15 1 -92 c1 -111 -10
-149 -43 -143 -27 6 -50 34 -68 84 -7 20 -18 43 -25 51 -6 8 -29 83 -50 165
-33 130 -58 205 -69 205 -1 0 -1 -27 1 -61z"/>
    <path d="M5030 5342 c0 -17 93 -87 130 -99 55 -16 144 -12 148 8 3 16 -28 30
-177 78 -69 22 -101 26 -101 13z"/>
    <path d="M2495 5233 c4 -48 8 -100 11 -115 4 -26 2 -28 -33 -29 -54 -1 -65 -4
-130 -33 -165 -76 -368 -299 -385 -423 l-3 -22 -41 18 c-82 37 -83 37 -73 -10
21 -90 52 -122 116 -117 36 3 39 0 85 -67 26 -38 76 -96 110 -127 l62 -57 -55
-26 c-30 -13 -60 -25 -67 -25 -21 0 -3 -19 38 -40 46 -23 118 -34 150 -22 20
7 28 3 53 -25 17 -19 68 -52 118 -77 l89 -43 -63 -59 -62 -59 37 -3 c56 -5
113 15 153 52 23 22 42 32 57 30 268 -44 333 -52 339 -43 13 21 5 92 -11 95
-331 55 -374 69 -471 142 -144 109 -244 196 -286 247 -51 64 -114 185 -120
234 -3 20 -7 38 -9 40 -7 7 29 67 70 115 46 55 179 159 241 187 50 23 126 24
168 3 76 -39 231 -160 268 -209 67 -88 158 -291 194 -429 8 -32 16 -60 18 -62
6 -6 108 57 103 64 -2 4 -7 24 -10 44 -11 70 -26 129 -38 148 -10 16 -7 30 22
87 34 70 48 141 35 190 l-7 28 -21 -30 c-12 -17 -36 -45 -55 -63 l-33 -33 -47
53 c-105 116 -215 213 -314 278 -31 21 -55 40 -51 43 13 14 3 90 -17 122 -21
34 -75 81 -118 104 l-24 13 7 -89z"/>
    <path d="M7522 5264 c-12 -8 -22 -21 -22 -28 0 -20 442 -450 731 -711 113
-102 131 -117 223 -189 116 -91 182 -123 272 -133 182 -20 298 9 286 73 -4 20
-17 32 -60 51 -33 14 -58 20 -61 14 -11 -18 -157 -33 -220 -23 -21 3 -68 30
-120 70 -96 73 -314 257 -471 397 -30 28 -90 81 -133 119 -144 128 -198 179
-323 298 -77 75 -81 77 -102 62z"/>
    <path d="M5740 5210 c0 -32 5 -62 10 -65 6 -3 19 -23 29 -43 16 -32 19 -33 19
-12 0 14 2 50 6 81 l7 57 -36 20 -35 21 0 -59z"/>
    <path d="M3891 5209 c-23 -25 -13 -49 21 -49 10 0 42 -17 71 -38 60 -45 87
-46 129 -5 33 31 29 39 -21 53 -25 6 -41 17 -44 30 -4 14 -14 20 -34 20 -15 1
-44 3 -64 6 -30 4 -41 1 -58 -17z"/>
    <path d="M5456 5204 c-97 -30 -300 -166 -370 -247 -62 -73 -65 -136 -9 -172
21 -14 39 -16 97 -11 39 4 87 11 106 16 19 5 52 11 72 14 21 3 77 13 124 21
48 8 98 15 111 15 22 0 24 3 19 25 -12 46 -25 75 -36 75 -5 0 -70 -15 -142
-34 -225 -58 -261 -58 -252 2 3 21 10 44 15 54 30 56 135 121 269 167 72 25
79 31 72 67 -5 28 -9 28 -76 8z"/>
    <path d="M7436 5177 c-36 -26 -9 -65 168 -242 94 -95 216 -212 270 -261 54
-49 108 -98 120 -109 43 -40 173 -153 227 -197 46 -37 62 -45 85 -40 l28 5
-30 25 c-141 119 -755 721 -808 793 -33 44 -35 44 -60 26z"/>
    <path d="M3761 5156 c-17 -20 -5 -38 42 -68 60 -38 89 -43 128 -22 l34 18 -39
8 c-22 5 -48 17 -58 28 -15 16 -79 50 -93 50 -1 0 -8 -6 -14 -14z"/>
    <path d="M4595 5152 c-22 -11 -51 -32 -65 -47 l-25 -27 27 -23 c20 -17 57 -28
150 -45 67 -12 160 -30 205 -39 70 -15 83 -15 88 -3 8 20 8 20 -32 41 -38 19
-134 45 -208 56 -78 12 -85 15 -85 35 0 11 9 24 21 30 40 22 252 -15 339 -60
l41 -21 35 30 c19 17 29 31 22 32 -16 1 -37 4 -173 30 -160 31 -289 35 -340
11z"/>
    <path d="M3624 5076 c-19 -14 -19 -15 1 -22 11 -4 30 -16 42 -27 18 -16 30
-18 68 -13 43 7 55 26 15 26 -10 0 -32 11 -48 25 -34 29 -50 31 -78 11z"/>
    <path d="M7327 5083 c-16 -15 -52 24 542 -577 278 -281 360 -356 399 -357 101
-5 250 -5 265 -1 25 6 16 24 -19 41 -16 7 -37 21 -47 30 -14 11 -36 15 -85 13
-45 -1 -81 4 -109 16 -51 20 -177 138 -585 545 -248 246 -304 297 -327 297
-15 0 -31 -3 -34 -7z"/>
    <path d="M5473 5055 c-39 -12 -159 -102 -149 -112 2 -3 18 3 34 11 17 9 68 27
114 40 63 18 83 28 83 41 0 26 -34 34 -82 20z"/>
    <path d="M7251 5000 l-33 -30 25 -53 c52 -106 118 -316 111 -355 -5 -27 -11
-38 -17 -31 -32 39 -138 220 -176 301 -53 112 -89 150 -76 81 20 -108 135
-334 235 -462 67 -85 96 -104 116 -76 8 10 14 33 14 49 0 63 -51 266 -107 433
l-58 172 -34 -29z"/>
    <path d="M1000 4966 c-27 -8 -38 -19 -46 -46 -14 -43 -1 -74 45 -107 55 -41
92 -27 121 45 21 53 -5 95 -70 115 -8 2 -31 -1 -50 -7z"/>
    <path d="M6954 4842 c-22 -66 -22 -68 -3 -103 30 -59 113 -259 134 -322 l20
-59 -24 -19 c-23 -19 -23 -19 -63 10 -106 78 -157 140 -252 307 -46 82 -54 88
-153 130 -41 18 -41 9 -3 -36 17 -19 84 -114 150 -210 170 -251 264 -352 337
-366 166 -31 116 334 -94 694 -14 23 -26 42 -26 42 -1 0 -12 -31 -23 -68z"/>
    <path d="M10902 4840 c-31 -7 -72 -43 -72 -63 0 -5 12 -36 26 -68 20 -44 32
-59 48 -60 45 -2 76 -6 79 -10 2 -2 11 -16 20 -31 21 -34 123 -111 140 -105 7
2 12 30 14 70 l2 66 -45 28 c-38 24 -44 32 -40 54 10 53 -52 126 -107 126 -18
0 -47 -3 -65 -7z"/>
    <path d="M7445 4793 c15 -116 185 -332 413 -526 120 -102 132 -109 184 -110
75 -2 65 20 -50 109 -108 83 -188 160 -297 289 -33 38 -64 75 -70 81 -12 13
-80 94 -130 154 -50 61 -57 61 -50 3z"/>
    <path d="M827 4809 c-11 -6 -25 -25 -32 -41 -11 -27 -10 -35 12 -74 19 -34 25
-63 29 -135 3 -51 10 -104 16 -118 10 -25 11 -24 41 37 43 84 79 120 128 128
76 13 84 55 21 116 -93 90 -162 118 -215 87z"/>
    <path d="M2489 4799 c-3 -9 -8 -77 -10 -123 -1 -44 2 -53 30 -78 24 -21 36
-26 53 -19 31 11 53 51 44 82 -5 21 -114 148 -117 138z"/>
    <path d="M4033 4760 c-20 -8 -23 -16 -22 -67 1 -84 16 -117 56 -121 27 -3 34
1 48 29 9 17 19 43 21 58 2 14 6 35 9 46 6 27 -5 42 -38 54 -33 13 -44 13 -74
1z"/>
    <path d="M6808 4763 c-22 -5 -24 -39 -3 -47 23 -8 97 -115 139 -199 21 -43 39
-77 41 -77 14 0 55 25 55 33 0 21 -116 241 -142 269 -25 27 -48 32 -90 21z"/>
    <path d="M3819 4743 c-61 -26 -61 -88 1 -155 32 -34 40 -38 46 -25 3 9 12 17
20 17 31 0 50 82 33 140 -9 31 -15 36 -41 35 -17 0 -43 -5 -59 -12z"/>
    <path d="M6487 4739 c-4 -15 1 -28 17 -40 31 -25 83 -106 112 -177 24 -57 30
-61 70 -41 20 10 18 15 -49 115 -67 101 -120 164 -137 164 -4 0 -10 -10 -13
-21z"/>
    <path d="M95 4728 c-23 -18 -26 -26 -22 -55 8 -44 52 -103 78 -103 39 0 75 28
88 68 19 56 8 78 -46 96 -60 21 -65 20 -98 -6z"/>
    <path d="M355 4698 c-63 -35 -123 -134 -127 -209 -3 -38 0 -45 23 -56 20 -10
34 -10 70 1 24 7 57 11 73 9 34 -5 105 -44 131 -73 10 -11 21 -20 26 -20 14 0
-4 45 -54 132 -37 67 -51 102 -56 149 -9 76 -35 96 -86 67z"/>
    <path d="M4194 4664 c-17 -42 -32 -120 -26 -145 8 -41 92 -18 144 38 l28 29
-19 34 c-19 37 -52 64 -89 75 -19 5 -25 1 -38 -31z"/>
    <path d="M2750 4670 c0 -14 -3 -55 -6 -91 -5 -59 -4 -68 18 -92 33 -36 60 -41
86 -17 42 39 20 97 -75 199 l-23 26 0 -25z"/>
    <path d="M6413 4663 c-13 -8 -23 -24 -23 -34 0 -41 215 -363 250 -374 26 -8
82 17 107 48 11 14 19 38 18 54 -1 27 -3 28 -54 25 -40 -2 -59 2 -74 15 -18
16 -107 148 -166 246 -25 42 -27 42 -58 20z"/>
    <path d="M11658 4638 c-16 -5 -28 -15 -28 -22 0 -24 -52 -66 -94 -77 -82 -21
-97 -48 -64 -115 11 -23 30 -24 110 -3 26 7 44 6 59 -1 38 -21 162 23 175 62
25 80 -37 171 -115 167 -9 0 -28 -5 -43 -11z"/>
    <path d="M3312 4535 c12 -14 31 -46 42 -71 18 -43 18 -47 3 -56 -49 -27 -127
-138 -164 -232 -63 -161 -87 -347 -53 -404 18 -29 18 -31 -1 -70 -30 -61 -61
-84 -109 -84 l-41 1 26 -21 c47 -37 95 -35 173 7 l69 38 99 -45 c97 -45 197
-75 262 -80 17 -1 32 -4 32 -6 0 -2 -22 -36 -50 -76 -27 -40 -50 -75 -50 -78
0 -10 133 23 172 43 20 10 43 28 51 39 13 19 20 20 68 12 59 -9 116 -8 211 2
208 23 353 59 343 84 -3 7 -5 35 -5 60 0 26 -4 52 -8 58 -5 9 -54 -1 -172 -32
-187 -50 -285 -57 -430 -29 -14 3 -43 8 -65 10 -110 14 -172 28 -225 49 -103
42 -230 140 -251 195 -27 69 74 372 149 447 43 43 78 48 222 28 25 -3 42 -3
38 1 -3 3 3 31 13 60 25 73 25 75 -13 64 -18 -5 -63 -9 -99 -9 l-66 0 -12 40
c-6 22 -22 45 -34 52 -25 14 -23 13 -94 22 l-53 6 22 -25z"/>
    <path d="M3857 4520 c-41 -8 -82 -53 -98 -107 -8 -28 -14 -93 -14 -159 0 -98
3 -115 26 -159 19 -38 38 -57 83 -84 136 -80 219 -34 283 159 38 116 39 216 3
255 -52 56 -211 109 -283 95z m140 -136 c40 -69 26 -171 -32 -228 -43 -43 -90
-55 -115 -30 -22 23 -32 88 -19 121 5 13 11 38 14 56 11 62 27 97 57 122 27
23 33 24 52 12 11 -8 31 -32 43 -53z"/>
    <path d="M2429 4445 c16 -36 37 -72 47 -79 39 -27 94 0 94 45 0 16 -35 37
-162 97 -4 2 6 -27 21 -63z"/>
    <path d="M4920 4308 c9 -40 15 -78 13 -84 -2 -6 -34 -18 -71 -27 l-67 -16 -59
30 c-48 25 -69 30 -117 28 -32 -1 -59 -6 -59 -11 0 -5 18 -44 40 -89 l41 -80
-29 -42 c-67 -98 -113 -262 -117 -417 -4 -152 24 -245 97 -319 34 -35 99 -70
130 -71 9 0 19 -4 23 -9 7 -12 -53 -81 -70 -81 -8 0 -16 -4 -19 -8 -11 -18
150 -4 209 19 33 13 69 23 80 22 11 0 72 -4 135 -8 147 -9 202 -14 208 -19 8
-9 -11 -48 -39 -78 -16 -18 -29 -36 -29 -40 0 -12 69 -10 114 3 22 6 52 23 67
38 26 27 31 28 106 23 43 -2 105 1 138 8 33 7 74 13 90 14 l30 1 -2 -62 c-3
-71 0 -71 74 -21 50 34 77 79 71 119 -3 21 0 29 11 30 19 0 60 5 117 14 41 6
41 6 51 63 6 32 9 69 6 84 l-5 26 -101 -35 c-116 -39 -236 -68 -317 -78 -61
-7 -231 -7 -270 -1 -14 3 -43 7 -65 10 -51 6 -106 15 -175 26 -30 5 -75 12
-100 15 -72 10 -206 45 -266 69 -151 61 -198 167 -159 357 41 204 162 349 314
374 88 14 225 7 292 -15 114 -38 283 -137 455 -266 40 -30 74 -54 77 -54 5 0
37 75 37 88 0 12 -69 83 -137 141 -58 49 -62 56 -72 113 -6 33 -20 79 -31 102
-19 40 -85 114 -94 105 -2 -2 -7 -44 -11 -94 -4 -49 -8 -91 -9 -92 -1 -2 -38
10 -82 26 -43 15 -109 34 -146 42 -47 9 -68 17 -68 27 0 29 -41 81 -88 110
-39 25 -136 62 -162 62 -4 0 1 -33 10 -72z"/>
    <path d="M11276 4369 c-3 -8 -26 -84 -51 -169 -122 -411 -229 -691 -316 -825
-82 -126 -159 -196 -180 -163 -19 29 -5 69 95 272 70 141 122 262 156 366 59
174 74 209 136 298 49 71 52 77 25 63 -68 -37 -198 -214 -294 -403 -83 -162
-115 -240 -182 -443 -21 -63 -85 -315 -85 -335 0 -7 -38 -51 -85 -96 -93 -89
-131 -155 -142 -242 l-5 -49 41 -16 c23 -10 51 -17 64 -17 20 0 22 4 19 47 -4
65 32 118 157 231 53 48 129 121 169 162 240 246 264 277 332 423 46 100 185
483 200 552 24 107 6 279 -36 339 -10 15 -14 16 -18 5z"/>
    <path d="M7440 4253 c59 -106 118 -154 233 -187 102 -30 110 -82 26 -169 -39
-40 -51 -48 -71 -42 -35 11 -64 42 -82 90 -13 34 -28 50 -74 78 -31 19 -85 62
-119 94 l-63 58 -27 -25 c-36 -33 -78 -51 -128 -57 -59 -7 -133 -61 -284 -210
-74 -73 -140 -133 -148 -133 -26 0 -53 20 -53 39 0 10 30 44 68 77 37 33 81
71 97 86 17 16 53 47 82 70 28 24 55 52 61 63 15 32 4 78 -25 104 -25 21 -33
23 -102 17 -82 -6 -111 -11 -209 -31 -35 -7 -84 -11 -110 -9 -94 7 -161 5
-181 -5 -29 -16 -55 -129 -54 -234 1 -61 28 -96 61 -78 11 6 30 11 41 11 29 0
47 35 61 117 6 40 17 76 23 81 16 13 51 20 127 27 133 12 159 15 182 23 13 5
42 7 66 4 l43 -4 -32 -23 c-17 -13 -50 -41 -72 -62 -76 -71 -138 -113 -190
-128 -73 -22 -130 -72 -129 -114 2 -68 124 -221 172 -216 14 1 33 3 43 4 10 0
100 82 200 182 100 99 195 187 211 196 67 35 216 9 266 -46 49 -54 60 -72 60
-94 0 -32 33 -65 94 -93 46 -21 65 -24 184 -24 158 0 173 6 228 87 21 31 51
70 67 87 45 49 31 122 -38 185 -53 48 -75 58 -150 66 -147 16 -212 40 -259 95
-14 17 -26 38 -26 46 0 12 -76 54 -97 54 -3 0 9 -26 27 -57z"/>
    <path d="M679 4277 c-25 -12 -26 -13 -13 -49 13 -38 13 -38 -14 -39 -15 -1
-38 -2 -52 -4 -14 -2 -46 -5 -72 -7 -27 -1 -48 -5 -48 -8 1 -3 34 -43 75 -90
41 -46 73 -85 72 -86 -1 -1 -67 -5 -147 -8 -79 -4 -145 -8 -146 -9 -2 -1 25
-34 58 -72 l61 -70 163 -61 c139 -53 263 -118 250 -131 -3 -4 -80 8 -226 33
-14 2 -49 7 -77 10 l-53 7 28 -84 28 -84 101 -61 c91 -55 111 -63 214 -83 110
-22 133 -32 202 -92 9 -7 -22 -6 -160 5 -46 4 -63 2 -64 -7 0 -6 -2 -22 -5
-34 -3 -18 12 -30 99 -81 56 -33 201 -110 322 -171 228 -117 242 -127 344
-248 35 -41 53 -54 90 -63 25 -6 48 -10 51 -10 3 0 26 -6 53 -14 52 -15 52
-15 36 48 -10 39 -16 45 -62 65 -47 20 -62 36 -159 164 -84 111 -107 148 -103
167 5 35 12 82 25 180 6 47 13 96 15 110 27 173 27 184 -1 233 -14 26 -29 49
-33 51 -4 3 -36 -26 -70 -65 -35 -38 -67 -69 -71 -69 -5 0 -7 12 -5 28 2 15 6
77 10 137 3 61 8 130 10 155 2 25 7 88 10 141 l6 96 -74 21 c-42 12 -79 22
-85 22 -5 0 -35 -71 -67 -157 -32 -87 -60 -160 -62 -163 -2 -2 -18 11 -35 30
l-30 35 6 95 c4 52 9 128 12 168 l7 72 -48 21 c-26 11 -50 17 -55 12 -4 -4
-22 -45 -40 -91 -18 -45 -35 -84 -39 -86 -5 -3 -38 32 -167 180 -24 27 -28 27
-65 11z m161 -251 c30 -42 58 -75 62 -73 4 1 23 34 42 72 l35 70 -4 -60 c-2
-33 -7 -99 -10 -147 l-6 -87 106 -88 c59 -48 110 -89 114 -91 4 -1 35 82 69
185 l62 188 -5 -85 c-3 -47 -8 -132 -12 -190 -9 -123 -7 -248 4 -307 l8 -42
88 60 c48 33 87 58 87 55 0 -4 -6 -48 -14 -99 -8 -50 -17 -112 -20 -137 -4
-25 -8 -56 -10 -70 -2 -14 -7 -46 -11 -72 -3 -27 -8 -48 -10 -48 -2 0 -77 36
-167 79 -126 62 -156 80 -133 81 40 1 117 10 132 15 12 4 -87 160 -110 177
-10 6 -51 21 -327 122 l-125 46 75 -5 c211 -12 286 -17 295 -19 20 -2 3 27
-80 138 l-85 113 -160 39 c-88 21 -160 42 -160 46 0 4 6 6 13 3 6 -2 56 -6
110 -10 92 -5 97 -5 88 12 -10 19 -73 107 -111 156 -13 15 -20 30 -18 32 2 3
28 -4 57 -15 58 -21 70 -14 51 34 -22 59 -13 50 80 -78z"/>
    <path d="M2741 4273 c28 -40 77 -91 97 -102 30 -16 77 -13 92 5 21 24 1 66
-40 86 -19 9 -64 19 -99 23 -62 7 -63 7 -50 -12z"/>
    <path d="M9972 4282 c-14 -9 -49 -66 -59 -95 -3 -10 -36 -36 -74 -58 -38 -23
-69 -44 -69 -46 0 -11 83 -103 92 -103 6 0 31 18 55 41 37 34 49 39 73 34 37
-8 82 17 115 65 23 34 24 39 12 80 -7 24 -23 51 -37 62 -29 21 -89 33 -108 20z"/>
    <path d="M10655 4117 c-186 -284 -252 -439 -262 -607 -5 -78 -2 -109 16 -173
22 -82 56 -156 89 -196 l19 -25 13 23 c15 30 20 107 9 163 -7 41 -4 52 68 198
136 279 304 683 289 697 -2 3 -21 -26 -41 -64 -21 -37 -48 -86 -60 -108 -12
-22 -81 -157 -154 -300 -72 -143 -143 -271 -157 -285 -24 -22 -26 -23 -21 -5
4 11 9 43 12 70 17 131 49 224 150 425 73 147 144 324 134 335 -3 2 -49 -65
-104 -148z"/>
    <path d="M4223 4154 l-21 -64 38 -10 c46 -12 75 -34 163 -119 l68 -66 30 33
c16 18 29 39 29 47 0 33 -171 184 -259 230 l-27 14 -21 -65z"/>
    <path d="M6117 4115 c-21 -8 -64 -28 -97 -46 -50 -27 -64 -40 -85 -83 -32 -67
-40 -135 -21 -181 19 -45 33 -58 73 -72 l31 -11 -5 34 c-5 28 -1 38 28 67 34
33 35 34 107 30 l74 -5 -8 34 c-4 18 -8 80 -9 138 -2 103 -2 105 -26 107 -13
1 -41 -4 -62 -12z"/>
    <path d="M9525 4122 c-43 -30 -57 -105 -27 -142 l18 -23 51 44 c28 24 54 49
57 56 3 7 -8 26 -24 42 -27 30 -54 38 -75 23z"/>
    <path d="M3569 4065 c-3 -2 -29 -11 -58 -18 l-54 -14 73 -41 c80 -47 88 -48
130 -27 38 20 40 56 4 84 -24 19 -83 29 -95 16z"/>
    <path d="M9672 4004 c-31 -21 -52 -66 -52 -111 0 -34 3 -39 25 -41 27 -2 83
18 123 44 21 14 22 16 6 46 -17 33 -58 78 -71 78 -5 0 -19 -7 -31 -16z"/>
    <path d="M8768 3942 c-36 -31 -74 -72 -85 -90 -14 -26 -39 -45 -107 -79 -48
-24 -89 -43 -90 -41 -2 2 -15 32 -29 68 -14 36 -27 58 -27 50 -1 -8 -3 -31 -5
-50 -2 -19 -6 -66 -9 -105 -4 -61 -13 -86 -68 -195 -72 -143 -123 -203 -189
-220 -53 -15 -120 -7 -171 20 l-39 20 -20 -46 c-11 -26 -18 -48 -16 -50 3 -3
41 -11 117 -23 113 -18 222 16 277 85 17 22 49 76 71 120 53 109 94 168 137
194 19 12 35 27 35 34 0 17 50 61 85 74 92 35 261 48 334 26 24 -7 47 -11 50
-9 11 7 44 75 39 80 -9 9 -142 31 -209 34 -12 1 -15 12 -12 59 2 31 5 67 7 80
2 12 0 22 -3 22 -3 0 -36 -26 -73 -58z"/>
    <path d="M11506 3970 c-105 -53 -152 -115 -226 -305 -94 -237 -198 -426 -279
-505 -26 -25 -71 -74 -101 -110 -58 -71 -98 -110 -112 -110 -4 0 -8 -4 -8 -9
0 -18 35 -17 95 2 33 10 76 23 95 29 19 6 76 30 127 54 l92 44 79 118 c204
303 333 575 356 747 8 65 -4 51 -49 -60 -89 -217 -284 -561 -366 -644 -48 -48
-159 -136 -159 -126 0 3 26 41 59 83 110 145 171 257 252 459 59 150 112 261
137 289 42 48 55 64 51 64 -2 -1 -21 -9 -43 -20z"/>
    <path d="M5326 3873 c24 -38 44 -74 44 -81 0 -7 14 -19 32 -26 37 -16 74 -4
84 26 9 30 -5 74 -29 86 -17 9 -165 62 -174 62 -1 0 18 -30 43 -67z"/>
    <path d="M7156 3892 c-29 -59 11 -69 89 -22 l50 30 -37 0 c-20 0 -48 4 -62 10
-23 8 -27 6 -40 -18z"/>
    <path d="M9308 3865 c-70 -23 -168 -93 -205 -148 -55 -82 -52 -185 7 -228 56
-42 180 -40 265 2 110 55 202 229 171 325 -17 53 -141 79 -238 49z m110 -87
c48 -24 34 -105 -32 -182 -31 -36 -37 -39 -103 -43 -76 -6 -132 13 -134 45 -4
57 25 125 68 164 38 34 146 43 201 16z"/>
    <path d="M4222 3830 l-63 -15 90 -44 c92 -44 124 -47 158 -19 22 18 15 55 -14
78 -31 24 -73 24 -171 0z"/>
    <path d="M8038 3823 c-20 -16 -50 -50 -66 -77 l-31 -49 25 -33 c30 -39 64
-124 64 -160 0 -15 -12 -37 -28 -54 l-28 -28 57 -6 c97 -11 158 31 194 133 35
99 14 167 -84 269 -38 39 -57 40 -103 5z"/>
    <path d="M5014 3794 c-41 -11 -77 -23 -79 -26 -7 -7 148 -78 171 -78 33 0 94
48 94 74 0 59 -56 68 -186 30z"/>
    <path d="M9781 3793 c-62 -21 -104 -46 -107 -65 -4 -32 142 -72 171 -48 17 15
29 71 21 98 -9 27 -35 32 -85 15z"/>
    <path d="M3711 3738 c59 -74 119 -99 149 -63 31 37 -14 73 -112 90 l-67 11 30
-38z"/>
    <path d="M6374 3738 c-93 -73 -146 -166 -146 -255 0 -127 64 -193 187 -193
l54 0 -24 26 c-42 45 -30 121 27 181 l30 31 -35 71 c-20 39 -39 92 -43 116 -3
25 -10 45 -14 45 -4 0 -20 -10 -36 -22z"/>
    <path d="M7070 3735 c-14 -8 -56 -24 -95 -36 -79 -24 -95 -39 -95 -85 0 -40
24 -66 55 -60 59 11 80 31 121 114 23 45 41 82 40 82 0 -1 -12 -7 -26 -15z"/>
    <path d="M7182 3650 c-21 -59 10 -104 85 -121 35 -7 47 -1 118 62 17 15 41 36
55 48 14 11 21 21 15 22 -16 2 -74 6 -171 13 l-92 6 -10 -30z"/>
    <path d="M5410 3662 c0 -5 30 -34 67 -66 77 -64 109 -71 149 -30 20 19 24 31
19 52 -4 15 -8 28 -9 29 -1 1 -42 5 -91 8 -50 3 -100 8 -112 11 -13 2 -23 0
-23 -4z"/>
    <path d="M7783 3617 l-52 -10 5 -66 c10 -128 -43 -212 -203 -314 -122 -79
-221 -126 -356 -167 -259 -80 -323 -103 -392 -142 -125 -70 -154 -113 -186
-275 -11 -54 -22 -108 -24 -121 -5 -21 -9 -22 -68 -17 -110 11 -221 26 -263
37 l-42 10 1 56 c0 32 -3 129 -6 217 -6 180 4 248 49 343 15 31 28 60 28 64 1
3 -26 30 -59 59 l-60 52 -21 -49 c-12 -27 -24 -65 -28 -84 -3 -19 -8 -46 -11
-60 -13 -62 -19 -157 -19 -300 0 -137 11 -411 17 -416 2 -2 125 -11 247 -19
30 -2 100 -7 155 -11 194 -13 175 -16 175 26 0 62 30 198 56 258 61 139 147
195 374 244 114 25 152 26 250 6 41 -9 109 -19 150 -23 41 -3 83 -9 93 -11 32
-10 18 21 -28 59 -74 62 -56 102 77 172 118 62 210 171 250 297 5 18 12 70 14
116 l4 82 -38 -1 c-20 -1 -60 -6 -89 -12z"/>
    <path d="M5860 3569 c-41 -11 -79 -24 -83 -28 -4 -4 29 -25 73 -45 74 -35 83
-37 113 -25 64 25 86 62 60 98 -18 27 -63 27 -163 0z"/>
    <path d="M8610 3505 c-14 -14 -44 -38 -67 -53 -24 -15 -43 -34 -43 -42 0 -33
13 -58 33 -67 24 -10 82 0 92 17 7 12 20 170 13 170 -2 0 -15 -11 -28 -25z"/>
    <path d="M5183 3478 c-35 -11 -63 -24 -63 -28 0 -4 27 -24 61 -44 45 -27 68
-35 90 -31 66 12 96 53 73 98 -13 23 -21 27 -57 27 -23 -1 -70 -10 -104 -22z"/>
    <path d="M8880 3458 c-14 -11 -51 -33 -82 -49 -32 -16 -58 -33 -59 -37 0 -4
-2 -15 -4 -26 -2 -10 7 -29 20 -42 20 -20 28 -22 56 -14 18 5 37 14 43 20 9 9
58 162 53 166 -1 1 -13 -7 -27 -18z"/>
    <path d="M1804 3430 c-53 -12 -94 -47 -94 -81 0 -45 15 -66 57 -80 57 -19 62
-19 89 4 45 40 42 133 -6 156 -8 4 -29 5 -46 1z"/>
    <path d="M6925 3375 c-22 -7 -71 -23 -110 -35 -38 -12 -76 -29 -82 -38 -20
-25 -16 -69 8 -85 24 -17 86 -12 109 9 15 13 125 165 118 163 -2 0 -21 -7 -43
-14z"/>
    <path d="M2621 3354 c-17 -14 -29 -29 -26 -32 3 -3 53 -11 112 -18 119 -14
139 -18 192 -35 83 -26 120 -65 113 -119 -4 -33 -40 -76 -70 -85 -21 -6 -23
-4 -17 14 3 12 4 34 0 49 -5 24 -14 29 -93 49 -48 13 -125 34 -172 48 -46 14
-90 24 -96 23 -16 -4 40 -88 97 -146 66 -69 153 -104 285 -116 121 -12 207 91
172 205 -6 22 -25 51 -41 65 -72 60 -210 107 -348 119 -72 6 -78 5 -108 -21z"/>
    <path d="M7134 3372 c-79 -58 -55 -142 41 -142 36 0 68 11 138 47 l92 47 -40
7 c-70 13 -89 17 -130 27 -62 17 -91 21 -101 14z"/>
    <path d="M4165 3357 c-78 -25 -124 -82 -129 -159 -5 -71 18 -139 67 -194 53
-60 80 -73 149 -69 97 7 131 42 154 161 18 98 18 138 -2 176 -44 84 -138 118
-239 85z m132 -109 c53 -59 57 -111 12 -163 -34 -38 -83 -57 -111 -43 -24 12
-58 80 -58 116 0 45 19 88 43 100 39 19 92 14 114 -10z"/>
    <path d="M9233 3359 c-12 -4 -29 -23 -37 -41 -19 -46 -58 -90 -135 -152 -91
-73 -208 -142 -256 -151 -22 -4 -50 -9 -61 -11 -87 -16 -168 -21 -286 -19 -76
2 -142 6 -146 9 -5 3 -27 8 -48 10 -21 3 -93 17 -159 30 -66 14 -133 27 -149
30 -16 3 -52 10 -80 15 -109 22 -103 23 -141 -22 l-36 -42 48 -6 c26 -3 88
-19 138 -35 102 -32 140 -64 214 -178 24 -36 45 -65 46 -64 2 2 5 39 8 82 7
88 14 98 67 90 41 -5 81 -11 165 -21 33 -5 123 -8 200 -8 133 0 142 1 185 26
44 26 47 26 95 12 28 -8 81 -26 118 -40 38 -14 70 -23 72 -21 2 2 -21 30 -50
63 -30 33 -55 63 -55 66 0 4 12 9 28 12 66 13 147 52 201 97 47 39 67 49 121
59 36 6 79 13 95 16 71 13 72 18 10 37 -33 10 -68 18 -79 18 -15 0 -17 5 -11
23 12 35 18 117 8 118 -34 6 -71 5 -90 -2z"/>
    <path d="M8710 3209 c-30 -72 21 -109 93 -69 86 47 85 47 26 65 -30 9 -66 20
-81 25 -23 7 -28 5 -38 -21z"/>
    <path d="M8374 3215 c-47 -50 -30 -105 32 -105 28 0 179 65 160 68 -10 2 -54
14 -100 26 -61 17 -84 20 -92 11z"/>
    <path d="M10120 3217 c-35 -17 -70 -74 -70 -112 0 -36 31 -82 64 -95 14 -5 27
-24 36 -49 13 -41 93 -131 116 -131 15 0 20 15 29 71 6 38 3 49 -23 85 l-29
40 19 24 c35 43 7 121 -57 160 -38 23 -51 24 -85 7z"/>
    <path d="M1684 3212 c-34 -3 -58 -24 -68 -58 -5 -17 4 -33 41 -71 36 -36 55
-68 76 -126 16 -43 40 -90 53 -105 l25 -27 -7 24 c-11 41 -7 125 9 163 8 20
27 44 42 54 55 39 73 60 79 91 5 32 5 32 -51 43 -61 13 -148 18 -199 12z"/>
    <path d="M3214 3156 c-13 -34 2 -48 71 -71 92 -30 98 -32 445 -195 265 -124
409 -171 480 -155 34 8 67 42 73 76 5 25 2 27 -44 36 -38 8 -51 7 -60 -4 -28
-33 -133 1 -489 160 -345 154 -461 191 -476 153z"/>
    <path d="M6485 3008 c-10 -17 -42 -56 -71 -87 -30 -31 -54 -64 -54 -74 0 -22
43 -67 66 -67 25 0 84 31 93 49 5 9 7 23 6 32 -2 10 -6 52 -10 95 -3 44 -7 80
-9 81 -1 1 -10 -12 -21 -29z"/>
    <path d="M3160 2975 c-14 -15 -20 -29 -14 -33 5 -5 50 -24 99 -43 114 -42 165
-68 231 -116 55 -39 94 -95 89 -126 -5 -25 14 -87 26 -87 25 0 79 31 94 54 54
83 -122 232 -408 345 -43 17 -81 31 -86 31 -4 0 -18 -11 -31 -25z"/>
    <path d="M2245 2878 c-4 -24 -9 -56 -11 -73 -3 -16 -11 -55 -17 -85 l-13 -55
-89 122 c-50 67 -92 122 -95 122 -4 1 -29 -19 -57 -44 l-52 -46 44 -104 c35
-87 40 -105 26 -106 -9 0 -32 -2 -51 -4 -19 -2 -65 -6 -103 -9 -57 -4 -73 -9
-102 -35 -19 -16 -31 -32 -27 -34 4 -2 39 -12 79 -22 71 -18 75 -21 184 -127
61 -59 104 -108 96 -108 -8 0 -72 9 -143 19 -71 11 -149 23 -174 26 -24 4 -49
9 -54 12 -21 13 4 -21 74 -101 52 -60 84 -87 105 -92 16 -4 54 -15 85 -24 30
-10 113 -35 183 -56 123 -37 129 -40 143 -73 8 -19 13 -35 12 -36 -7 -4 -365
-65 -380 -65 -10 0 -18 -4 -18 -9 0 -5 55 -57 123 -115 l122 -106 51 5 c74 7
140 13 214 19 36 4 82 9 103 12 42 6 40 9 38 -76 l-2 -55 265 -3 c146 -1 266
1 266 5 -1 4 -20 29 -43 55 l-43 48 -89 6 c-50 3 -106 7 -125 9 -19 2 -55 4
-78 4 l-44 1 4 51 3 50 -100 -7 c-55 -3 -116 -8 -135 -10 -19 -1 -75 -6 -125
-9 l-90 -6 -28 35 -28 36 28 1 c15 1 51 2 78 4 28 1 75 3 107 4 56 1 57 1 94
53 l38 51 -97 91 -97 90 -147 43 -148 42 118 -5 c64 -3 117 -2 118 3 0 4 3 42
5 83 l5 76 -108 51 c-59 29 -132 63 -161 77 -60 27 -56 31 43 42 33 3 62 8 64
10 2 2 0 30 -6 62 -6 31 -10 58 -8 60 2 2 42 -49 90 -113 48 -64 89 -115 91
-112 3 2 15 58 28 123 l24 119 2 -70 c3 -135 8 -280 9 -286 1 -3 38 -49 84
-101 45 -52 101 -116 125 -143 l42 -50 1 35 c1 19 2 49 4 65 1 17 6 82 10 145
4 63 9 117 10 118 4 4 76 -73 87 -92 3 -6 8 -93 11 -193 4 -199 -3 -176 82
-276 21 -26 42 -47 46 -47 3 0 21 32 39 71 41 90 44 88 55 -45 5 -77 4 -75
130 -181 33 -27 65 -54 71 -60 6 -5 37 -32 69 -60 32 -27 72 -62 88 -77 31
-26 31 -26 57 -8 55 39 55 40 -57 125 -58 44 -145 111 -194 149 l-89 69 -1 76
c-1 67 -6 208 -8 251 -1 12 -90 55 -97 47 -1 -1 -13 -37 -26 -81 l-24 -78 -29
53 c-31 57 -30 53 -36 281 l-2 108 -109 91 c-60 50 -112 89 -114 86 -3 -3 -16
-69 -30 -148 -13 -79 -25 -151 -27 -159 -2 -8 -24 26 -49 75 -45 88 -46 92
-48 195 -5 245 0 221 -64 295 -32 36 -62 65 -66 65 -4 0 -11 -19 -15 -42z"/>
    <path d="M4376 2897 c-18 -19 -18 -20 0 -61 42 -93 205 -222 329 -259 102 -31
102 -31 101 10 -1 35 -5 40 -78 84 -42 26 -125 84 -183 130 -161 127 -147 119
-169 96z"/>
    <path d="M1323 2876 c-66 -55 -71 -245 -8 -274 20 -9 26 -7 39 13 40 61 111
77 201 46 32 -11 60 -19 63 -17 12 13 -40 69 -122 130 -21 16 -52 51 -69 78
-35 56 -59 61 -104 24z"/>
    <path d="M1095 2834 c-43 -44 -46 -84 -10 -120 22 -22 31 -25 68 -19 52 8 87
30 87 53 0 39 -22 91 -45 106 -37 24 -62 19 -100 -20z"/>
    <path d="M5010 2829 c-46 -26 -83 -81 -83 -122 0 -32 13 -128 18 -137 2 -3 -3
-41 -11 -85 -38 -219 -36 -307 12 -471 28 -100 29 -102 8 -143 -20 -39 -20
-117 -1 -163 20 -48 70 -94 114 -105 41 -10 141 4 180 25 35 20 56 70 59 144
4 81 -10 99 -49 68 -21 -16 -24 -26 -18 -43 14 -40 -1 -71 -44 -86 -157 -53
-225 73 -97 180 l40 33 -18 26 c-83 116 -95 402 -25 544 19 37 19 35 -9 46
-73 27 -85 183 -16 205 18 6 73 -7 110 -25 9 -4 15 -21 15 -40 0 -35 24 -52
61 -45 11 2 22 4 27 4 17 2 6 86 -18 127 -20 35 -35 46 -80 63 -70 26 -130 26
-175 0z"/>
    <path d="M9755 2788 c-29 -49 -201 -218 -270 -265 -33 -22 -85 -53 -115 -68
-68 -35 -170 -135 -202 -200 -30 -59 -55 -164 -63 -255 -9 -107 -16 -158 -26
-192 -5 -18 -9 -36 -9 -40 0 -17 27 6 55 47 16 25 42 49 56 54 16 5 55 47 97
103 98 128 138 169 279 281 67 54 130 110 141 125 44 65 72 170 46 179 -5 2
-41 -32 -78 -74 -105 -119 -231 -248 -344 -352 -56 -52 -102 -100 -102 -108 0
-13 -47 -30 -56 -20 -3 3 1 16 9 29 8 12 22 51 31 85 30 120 93 206 179 247
57 26 267 181 329 240 30 30 40 49 53 110 21 94 17 120 -10 74z"/>
    <path d="M5418 2792 c-37 -2 -48 -7 -49 -20 -1 -9 -3 -40 -5 -69 l-4 -52 52 5
c29 2 76 6 103 9 126 12 328 5 418 -15 31 -7 37 -5 38 9 0 9 2 40 5 69 l4 52
-42 1 c-24 0 -52 2 -63 5 -25 5 -394 10 -457 6z"/>
    <path d="M7001 2778 c-74 -13 -143 -81 -156 -156 -4 -26 0 -38 19 -57 40 -40
95 -29 88 17 -8 48 60 108 122 108 28 0 65 -26 75 -54 10 -26 -12 -106 -45
-163 l-24 -41 27 -54 c45 -90 40 -247 -13 -398 -16 -45 -16 -46 11 -85 24 -35
26 -47 23 -103 -3 -53 -8 -67 -29 -83 -56 -43 -125 -1 -135 82 -11 93 -65 67
-77 -38 -7 -54 25 -120 69 -145 35 -20 105 -26 177 -14 37 6 57 16 87 46 45
45 50 68 32 170 -14 76 -35 115 -59 106 -17 -7 -17 -10 13 65 57 138 63 225
26 390 -19 83 -19 86 -1 108 27 33 42 99 35 150 -15 108 -130 173 -265 149z"/>
    <path d="M10819 2734 c-28 -34 -69 -46 -134 -39 l-63 6 -3 -52 c-4 -48 -2 -52
25 -66 19 -10 44 -13 71 -10 33 5 43 2 53 -13 30 -49 133 -40 182 16 58 66 53
121 -13 153 -51 25 -100 27 -118 5z"/>
    <path d="M8420 2694 c-81 -22 -154 -61 -173 -93 -40 -69 -7 -138 91 -188 74
-38 153 -50 228 -34 57 11 216 80 228 99 10 16 -129 46 -275 58 -73 6 -78 5
-89 -16 -7 -12 -10 -36 -8 -52 4 -27 3 -29 -21 -23 -14 4 -26 7 -27 8 -9 15
-20 92 -17 111 9 46 38 61 116 61 68 -1 174 -12 189 -21 3 -2 31 -7 62 -10 55
-6 56 -6 56 19 0 34 -13 42 -107 66 -109 28 -186 32 -253 15z"/>
    <path d="M10155 2635 c-72 -73 -171 -157 -325 -276 -275 -212 -449 -383 -640
-629 -58 -75 -73 -86 -139 -104 -134 -36 -213 -92 -261 -185 l-20 -40 27 -18
c16 -9 38 -25 49 -35 21 -19 21 -19 27 10 13 63 94 118 269 183 108 39 237
102 265 128 12 12 75 53 140 92 166 100 335 218 423 294 263 229 349 342 350
461 0 28 -3 53 -6 57 -3 3 -32 -29 -64 -71 -139 -184 -306 -337 -667 -609
-218 -165 -261 -188 -277 -147 -8 20 5 38 106 148 182 198 295 296 485 423
102 69 233 184 233 205 0 4 6 8 14 8 23 0 54 48 62 95 3 24 4 47 3 52 -2 5
-26 -14 -54 -42z"/>
    <path d="M3277 2638 c-109 -29 -177 -194 -123 -296 36 -67 109 -123 167 -127
130 -9 189 59 189 221 0 56 -5 81 -26 123 -42 84 -102 107 -207 79z m85 -120
c63 -19 72 -42 47 -117 -17 -51 -27 -65 -51 -75 -61 -26 -99 3 -112 86 -9 59
22 118 62 118 8 0 33 -5 54 -12z"/>
    <path d="M5482 2589 l-24 -9 39 -48 c83 -100 143 -205 197 -347 107 -280 160
-372 295 -517 36 -39 51 -48 78 -48 l34 0 -50 58 c-82 95 -126 182 -192 382
-33 102 -80 222 -104 268 -51 96 -149 238 -173 251 -27 14 -75 19 -100 10z"/>
    <path d="M5787 2567 c131 -167 163 -227 239 -444 64 -183 114 -291 184 -395
63 -94 110 -138 150 -138 41 0 43 12 11 51 -91 111 -159 248 -216 439 -67 225
-118 343 -197 457 -25 37 -34 43 -66 44 -20 1 -56 3 -80 5 l-44 4 19 -23z"/>
    <path d="M8089 2556 c-2 -2 -22 -7 -44 -10 -22 -4 -53 -8 -70 -11 -57 -9 -102
-14 -161 -20 -32 -3 -72 -8 -89 -10 -16 -2 -75 -7 -130 -11 -55 -3 -111 -8
-125 -9 -14 -2 -40 -4 -57 -4 -31 -1 -33 -3 -33 -36 l0 -35 63 5 c61 5 104 9
222 20 229 22 475 82 475 115 0 10 -42 14 -51 6z"/>
    <path d="M3623 2454 c-3 -8 -3 -24 1 -37 4 -18 13 -23 43 -25 41 -3 213 -31
223 -37 3 -2 23 -6 45 -9 70 -11 228 -57 305 -89 95 -39 141 -69 163 -106 22
-37 15 -70 -23 -106 l-29 -28 19 -25 c11 -13 20 -31 20 -38 0 -24 16 -15 64
36 78 84 89 138 41 211 -64 99 -355 215 -610 244 -5 0 -39 4 -75 8 -138 16
-181 16 -187 1z"/>
    <path d="M8045 2400 c-124 -31 -190 -56 -286 -106 -148 -78 -177 -154 -79
-204 38 -19 150 -53 157 -47 1 2 4 14 6 28 6 34 -7 74 -24 75 -23 1 -59 15
-59 23 0 40 158 130 335 191 49 17 91 32 92 34 2 1 -5 10 -14 19 -16 14 -27
13 -128 -13z"/>
    <path d="M6236 2297 c-16 -12 -15 -17 17 -70 19 -31 47 -88 62 -125 16 -37 44
-105 63 -152 41 -98 107 -198 190 -287 46 -49 63 -61 80 -56 12 3 22 7 22 10
0 2 -18 23 -41 46 -58 60 -134 180 -163 256 -14 36 -39 114 -55 173 -35 128
-49 155 -95 191 -39 30 -54 33 -80 14z"/>
    <path d="M10280 2163 c-94 -92 -288 -252 -495 -407 -195 -146 -341 -229 -437
-248 -105 -20 -69 -38 107 -53 33 -3 87 -8 120 -12 114 -13 174 -2 291 52 86
39 195 109 261 167 90 80 260 253 303 308 49 64 59 87 65 149 7 81 -7 80 -71
-6 -82 -109 -231 -256 -350 -344 -56 -40 -149 -109 -207 -151 -76 -56 -114
-78 -135 -78 -96 0 -78 44 43 110 124 67 263 166 335 239 66 68 195 236 229
299 25 46 4 38 -59 -25z"/>
    <path d="M8027 2176 c-61 -22 -87 -47 -119 -115 -24 -53 -25 -102 -3 -155 41
-97 119 -158 193 -150 101 10 144 59 167 189 14 76 14 90 3 125 -29 95 -137
143 -241 106z m112 -111 c41 -35 45 -54 25 -117 -20 -63 -30 -75 -72 -87 -28
-9 -34 -6 -57 21 -24 28 -41 74 -38 106 0 6 1 21 2 32 2 32 46 70 80 70 17 0
42 -11 60 -25z"/>
    <path d="M3245 2039 c-45 -14 -67 -35 -67 -63 0 -53 48 -96 109 -96 30 0 93
59 93 88 0 19 -52 72 -70 72 -5 0 -14 2 -22 4 -7 2 -26 0 -43 -5z"/>
    <path d="M4098 1985 c-2 -2 -27 -6 -56 -9 -61 -7 -145 -35 -211 -70 -35 -18
-47 -31 -52 -55 -4 -17 -4 -33 0 -35 3 -2 65 18 136 45 86 33 152 52 196 56
63 5 66 4 87 -22 13 -16 22 -42 22 -61 0 -37 -15 -84 -27 -84 -14 0 -55 71
-49 86 4 9 -11 6 -45 -12 -28 -14 -110 -45 -183 -69 -72 -25 -130 -48 -129
-52 3 -16 149 -65 209 -70 105 -9 263 44 304 103 31 46 37 129 12 174 -31 55
-58 70 -139 74 -40 1 -74 2 -75 1z"/>
    <path d="M7681 1948 c-62 -7 -278 -64 -294 -78 -8 -7 6 -86 17 -97 3 -3 45 10
93 30 104 41 203 67 270 70 48 2 48 2 48 37 0 32 -3 35 -35 40 -19 3 -64 2
-99 -2z"/>
    <path d="M8734 1941 c-59 -27 -87 -66 -79 -111 9 -48 22 -69 49 -79 20 -8 22
-13 16 -71 -4 -42 -2 -67 7 -78 7 -10 13 -25 13 -34 0 -26 19 -32 42 -11 34
30 55 88 51 137 -4 37 -1 46 15 55 54 29 50 140 -6 180 -42 29 -64 32 -108 12z"/>
    <path d="M4490 1915 c-70 -22 -90 -36 -80 -56 6 -10 10 -26 10 -36 0 -16 11
-18 112 -18 119 -1 163 -14 256 -75 30 -21 32 -21 33 -3 0 10 2 32 4 49 4 25
-2 37 -29 62 -61 55 -130 85 -204 87 -37 1 -83 -3 -102 -10z"/>
    <path d="M3295 1856 c-82 -26 -135 -66 -135 -101 0 -16 13 -29 48 -48 52 -28
79 -54 141 -139 38 -50 74 -78 86 -66 3 2 -7 33 -21 68 -34 82 -29 135 15 190
33 41 37 60 22 89 -12 22 -97 26 -156 7z"/>
    <path d="M5347 1646 c-8 -28 -18 -59 -22 -68 -5 -12 2 -23 26 -37 31 -19 150
-55 219 -66 19 -3 46 -7 60 -10 30 -5 85 -12 160 -20 30 -3 73 -8 95 -11 72
-9 598 -12 680 -4 114 12 176 21 202 31 13 5 23 7 23 4 0 -7 112 34 137 50 35
23 29 49 -15 69 -36 16 -43 16 -152 -3 -210 -36 -332 -46 -585 -46 -228 0
-327 8 -464 35 -126 25 -212 54 -287 95 l-61 33 -16 -52z"/>
    <path d="M8074 1574 c-437 -94 -466 -106 -691 -275 -227 -171 -209 -163 -325
-155 -83 5 -98 4 -98 -8 0 -18 52 -57 97 -75 53 -21 122 -17 178 11 218 111
568 238 780 284 104 23 144 30 237 44 111 16 130 19 158 19 22 1 23 2 8 17
-27 27 -103 41 -171 32 -96 -13 -334 -81 -569 -162 -117 -41 -221 -77 -230
-81 -12 -5 -16 -2 -14 9 1 9 61 52 133 96 129 79 144 85 308 121 28 6 88 22
135 36 47 13 92 26 100 28 8 2 51 12 95 24 44 11 99 21 123 22 23 2 42 4 42 6
0 1 -12 9 -27 17 -52 26 -113 24 -269 -10z"/>
    <path d="M4344 1512 c4 -32 8 -71 10 -87 3 -17 7 -53 10 -80 3 -28 9 -66 13
-85 5 -29 4 -33 -8 -24 -8 6 -50 39 -94 75 -44 35 -87 69 -95 76 -8 6 -35 28
-59 48 -58 48 -67 52 -126 54 -27 1 -76 4 -107 7 -32 2 -58 1 -58 -2 0 -4 31
-58 70 -120 38 -63 68 -114 65 -114 -5 0 -271 107 -353 143 -30 12 -40 11
-112 -12 -43 -15 -81 -29 -85 -32 -3 -3 6 -26 20 -50 13 -24 25 -47 25 -51 0
-6 -114 -63 -248 -123 -62 -28 -62 -28 -82 -93 -11 -36 -19 -66 -18 -68 3 -2
93 -9 261 -20 90 -5 111 -4 125 9 13 12 51 17 147 22 72 4 135 10 140 13 6 4
-4 -12 -22 -33 -119 -147 -153 -190 -153 -195 0 -3 44 -15 98 -27 l97 -21 126
68 c156 84 156 84 263 96 l59 7 -44 -39 c-24 -21 -57 -51 -74 -65 -16 -14 -45
-39 -63 -55 l-32 -29 12 -50 c13 -49 14 -50 67 -67 116 -38 99 -45 260 112 79
77 151 142 160 144 9 3 36 8 61 11 24 4 48 9 52 11 12 8 12 6 -51 -147 -33
-79 -59 -145 -58 -145 1 -1 30 -5 65 -9 l62 -7 63 54 c102 88 119 103 131 113
6 6 45 39 86 75 41 36 85 75 99 87 16 14 22 28 18 42 -7 27 0 27 22 0 l17 -21
67 45 c149 100 406 206 509 210 27 1 48 4 49 7 0 3 3 27 5 53 5 49 5 49 -23
43 -26 -5 -64 -9 -198 -21 -117 -11 -243 -30 -320 -49 -78 -19 -70 -22 -150
51 -41 37 -83 70 -92 73 -10 4 -42 6 -72 6 l-55 -1 -33 -55 c-18 -30 -36 -56
-41 -58 -4 -1 -59 72 -122 163 -62 91 -118 169 -124 174 -6 5 -46 11 -89 14
l-78 5 5 -56z m-168 -271 c39 -31 86 -67 104 -81 19 -14 46 -35 61 -48 25 -21
31 -21 78 -10 57 13 57 13 41 99 -5 30 -11 65 -14 79 -2 14 -7 43 -11 65 -7
40 -7 40 131 -97 77 -76 142 -140 145 -143 3 -3 51 -8 105 -11 l100 -6 19 47
20 48 35 -73 c29 -60 32 -74 20 -78 -17 -5 -113 -102 -234 -235 -44 -48 -81
-86 -82 -84 -2 2 14 57 35 123 21 65 38 120 36 122 -1 2 -36 5 -76 8 -41 2
-92 6 -115 8 -43 4 -50 -1 -214 -148 -19 -17 -69 -60 -110 -96 l-74 -65 79
115 c44 63 93 134 109 157 16 24 28 45 25 47 -2 2 -53 7 -114 11 -60 3 -132 8
-159 10 -55 5 -54 6 -201 -90 -60 -39 -116 -75 -123 -79 -8 -5 25 45 72 110
47 66 86 124 86 129 0 10 -66 13 -402 14 -98 1 -178 4 -178 9 0 4 57 20 127
36 178 40 168 34 130 80 -18 22 -44 52 -59 68 -15 15 -24 28 -20 28 4 0 94
-36 200 -80 175 -72 198 -79 272 -83 44 -2 80 -2 80 -1 0 2 -22 49 -49 104
-27 56 -52 108 -55 116 -6 15 54 -27 180 -125z m877 -228 c5 -26 4 -26 -9 -8
-16 22 -18 35 -5 35 5 0 11 -12 14 -27z"/>
    <path d="M2873 1498 c-29 -14 -42 -54 -38 -119 4 -68 43 -189 61 -189 8 0 31
7 53 16 30 12 41 23 46 44 13 59 72 90 172 90 l66 0 -23 25 c-14 15 -48 32
-80 41 -111 30 -128 37 -170 70 -46 37 -53 38 -87 22z"/>
    <path d="M2670 1378 c-11 -18 -23 -43 -26 -56 -13 -48 60 -109 116 -97 52 11
66 52 43 122 -15 43 -24 50 -79 59 -30 5 -36 1 -54 -28z"/>
    <path d="M8477 1345 c-1 -2 -40 -5 -87 -9 -47 -3 -98 -8 -115 -11 -279 -51
-377 -80 -719 -212 -321 -124 -388 -137 -474 -94 -151 76 -531 192 -637 195
l-30 1 -3 -66 -3 -66 51 -6 c65 -8 214 -59 435 -149 422 -173 467 -186 603
-182 274 8 561 89 882 248 155 77 370 215 370 237 0 10 -56 21 -103 21 -54 -1
-189 -55 -413 -166 -377 -186 -457 -214 -617 -221 -82 -3 -176 8 -219 26 -21
8 -28 18 -26 33 3 23 7 25 173 62 145 32 281 77 475 156 310 127 409 156 554
163 43 2 80 6 82 8 14 14 -36 29 -101 31 -41 2 -76 2 -78 1z"/>
    <path d="M8942 1293 c-23 -59 -20 -77 18 -95 19 -10 50 -18 68 -18 21 0 32 -5
32 -15 0 -48 54 -95 109 -95 71 0 134 52 125 105 -9 61 -51 92 -129 96 -28 1
-65 11 -82 21 -18 11 -55 22 -81 25 -46 5 -49 3 -60 -24z"/>
    <path d="M5808 1261 c-4 -44 7 -244 17 -326 12 -90 12 -98 14 -125 1 -25 4
-26 72 -29 l71 -2 -6 28 c-3 15 -7 51 -11 78 -3 28 -8 73 -11 100 -3 28 -7
105 -9 173 -1 67 -4 124 -6 126 -2 2 -32 6 -66 8 l-62 5 -3 -36z"/>
    <path d="M6217 1264 c-4 -4 -7 -27 -7 -50 0 -105 -37 -302 -73 -387 -24 -58
-20 -63 59 -62 l56 0 20 50 c23 59 45 140 53 198 3 23 8 53 10 67 2 14 7 60
10 103 7 76 7 77 -16 78 -13 0 -42 3 -65 5 -22 3 -43 2 -47 -2z"/>
    <path d="M5619 985 c-52 -14 -131 -55 -261 -136 -86 -53 -100 -71 -62 -78 27
-5 46 -22 40 -38 -15 -38 113 5 207 70 38 26 75 48 83 48 8 1 19 3 24 4 6 1
28 3 50 4 35 1 40 4 38 24 0 12 2 43 6 68 l8 45 -44 0 c-24 0 -64 -5 -89 -11z"/>
    <path d="M6448 928 c-8 -13 -25 -42 -37 -65 l-21 -43 22 0 c91 -2 129 -13 233
-65 126 -63 178 -78 173 -50 -2 13 7 21 37 29 l39 11 -45 27 c-26 15 -83 55
-129 88 -93 70 -141 90 -210 90 -38 0 -51 -4 -62 -22z"/>
    <path d="M8455 926 c-22 -7 -94 -39 -160 -70 -175 -84 -330 -132 -520 -161
-22 -3 -74 -17 -115 -31 -75 -26 -117 -30 -247 -20 -59 5 -67 -5 -25 -30 15
-9 60 -39 101 -67 91 -61 147 -76 278 -72 156 5 263 35 589 166 240 96 368
136 437 138 18 1 27 6 25 14 -7 21 -54 37 -120 41 -107 5 -238 -31 -518 -144
-232 -94 -337 -123 -390 -110 -46 11 -28 33 37 46 34 7 180 60 325 117 231 93
328 126 443 152 l30 7 -35 18 c-41 22 -79 24 -135 6z"/>
    <path d="M5155 718 c-63 -42 -71 -54 -51 -76 9 -10 16 -24 16 -30 0 -15 6 -15
32 -1 11 6 47 11 78 10 l58 -1 4 43 c6 53 2 64 -25 74 -41 14 -70 9 -112 -19z"/>
    <path d="M5746 741 c-5 -8 -78 -51 -216 -128 -158 -89 -290 -220 -290 -287 0
-8 19 -44 41 -80 l41 -66 29 61 c34 71 122 163 219 230 71 48 200 129 206 129
12 0 125 80 113 81 -43 2 -67 12 -91 39 -28 31 -43 37 -52 21z"/>
    <path d="M6861 686 c-7 -8 -11 -27 -9 -43 3 -24 8 -29 43 -34 22 -3 50 -10 62
-17 34 -19 55 -15 48 8 -4 11 -2 20 4 20 24 0 8 22 -36 50 -51 33 -94 38 -112
16z"/>
    <path d="M5989 596 c-158 -106 -259 -202 -294 -278 l-24 -53 25 -70 c14 -38
27 -71 28 -73 2 -1 16 17 31 40 40 60 115 137 215 221 165 139 234 204 274
258 14 20 26 38 26 41 0 2 -33 4 -74 4 l-74 0 -133 -90z"/>
    <path d="M6361 621 c-12 -16 -21 -32 -21 -36 0 -4 -9 -20 -21 -36 l-20 -29 23
-1 c103 -5 169 -32 325 -133 147 -96 200 -118 218 -92 7 9 28 21 46 27 37 13
59 27 59 39 0 9 -248 167 -340 218 -67 37 -172 72 -216 72 -25 0 -38 -7 -53
-29z"/>
    <path d="M6149 370 c-38 -20 -55 -37 -61 -59 -2 -10 12 -15 55 -17 64 -4 113
-26 177 -79 48 -40 88 -63 133 -76 23 -6 28 -5 23 6 -7 19 5 25 56 31 50 6 59
12 36 25 -9 5 -64 45 -122 88 -57 43 -119 83 -137 90 -46 16 -118 12 -160 -9z"/>
  </g>
</svg>
